<mxfile host="app.diagrams.net" modified="2021-09-25T08:35:14.087Z" agent="5.0 (Windows NT 10.0; Win64; x64) AppleWebKit/537.36 (KHTML, like Gecko) Chrome/93.0.4577.82 Safari/537.36 Edg/93.0.961.52" etag="C8INtrcTTwuitzLzKUCH" version="15.2.9" type="github">
  <diagram id="qKIUbqqgmsemp7KMwJu-" name="Page-1">
    <mxGraphModel dx="1038" dy="1047" grid="1" gridSize="10" guides="1" tooltips="1" connect="1" arrows="1" fold="1" page="1" pageScale="1" pageWidth="500" pageHeight="500" math="0" shadow="0">
      <root>
        <mxCell id="0" />
        <mxCell id="1" parent="0" />
        <mxCell id="eG-tpsc7ZjEbIQ_qfpCt-5" value="" style="edgeStyle=orthogonalEdgeStyle;rounded=0;orthogonalLoop=1;jettySize=auto;html=1;" parent="1" source="eG-tpsc7ZjEbIQ_qfpCt-1" target="eG-tpsc7ZjEbIQ_qfpCt-2" edge="1">
          <mxGeometry relative="1" as="geometry" />
        </mxCell>
        <mxCell id="eG-tpsc7ZjEbIQ_qfpCt-1" value="&lt;font color=&quot;#ffffff&quot;&gt;GC Root&lt;/font&gt;" style="whiteSpace=wrap;html=1;aspect=fixed;fillColor=#000000;" parent="1" vertex="1">
          <mxGeometry x="40" y="-40" width="40" height="40" as="geometry" />
        </mxCell>
        <mxCell id="eG-tpsc7ZjEbIQ_qfpCt-6" value="" style="edgeStyle=orthogonalEdgeStyle;rounded=0;orthogonalLoop=1;jettySize=auto;html=1;" parent="1" source="eG-tpsc7ZjEbIQ_qfpCt-2" target="eG-tpsc7ZjEbIQ_qfpCt-3" edge="1">
          <mxGeometry relative="1" as="geometry" />
        </mxCell>
        <mxCell id="eG-tpsc7ZjEbIQ_qfpCt-2" value="&lt;font color=&quot;#ffffff&quot;&gt;A&lt;/font&gt;" style="ellipse;whiteSpace=wrap;html=1;aspect=fixed;fillColor=#000000;" parent="1" vertex="1">
          <mxGeometry x="120" y="-40" width="40" height="40" as="geometry" />
        </mxCell>
        <mxCell id="eG-tpsc7ZjEbIQ_qfpCt-7" value="" style="edgeStyle=orthogonalEdgeStyle;rounded=0;orthogonalLoop=1;jettySize=auto;html=1;" parent="1" source="eG-tpsc7ZjEbIQ_qfpCt-3" target="eG-tpsc7ZjEbIQ_qfpCt-4" edge="1">
          <mxGeometry relative="1" as="geometry" />
        </mxCell>
        <mxCell id="eG-tpsc7ZjEbIQ_qfpCt-3" value="B" style="ellipse;whiteSpace=wrap;html=1;aspect=fixed;fillColor=#DBDBDB;strokeColor=#666666;fontColor=#333333;" parent="1" vertex="1">
          <mxGeometry x="200" y="-40" width="40" height="40" as="geometry" />
        </mxCell>
        <mxCell id="eG-tpsc7ZjEbIQ_qfpCt-4" value="C" style="ellipse;whiteSpace=wrap;html=1;aspect=fixed;" parent="1" vertex="1">
          <mxGeometry x="280" y="-40" width="40" height="40" as="geometry" />
        </mxCell>
        <mxCell id="eG-tpsc7ZjEbIQ_qfpCt-20" value="" style="edgeStyle=orthogonalEdgeStyle;rounded=0;orthogonalLoop=1;jettySize=auto;html=1;" parent="1" source="eG-tpsc7ZjEbIQ_qfpCt-8" target="eG-tpsc7ZjEbIQ_qfpCt-9" edge="1">
          <mxGeometry relative="1" as="geometry" />
        </mxCell>
        <mxCell id="eG-tpsc7ZjEbIQ_qfpCt-8" value="&lt;font color=&quot;#ffffff&quot;&gt;GC Root&lt;/font&gt;" style="whiteSpace=wrap;html=1;aspect=fixed;fillColor=#000000;" parent="1" vertex="1">
          <mxGeometry x="40" y="200" width="40" height="40" as="geometry" />
        </mxCell>
        <mxCell id="eG-tpsc7ZjEbIQ_qfpCt-21" value="" style="edgeStyle=orthogonalEdgeStyle;rounded=0;orthogonalLoop=1;jettySize=auto;html=1;fontColor=#000000;" parent="1" source="eG-tpsc7ZjEbIQ_qfpCt-9" target="eG-tpsc7ZjEbIQ_qfpCt-10" edge="1">
          <mxGeometry relative="1" as="geometry" />
        </mxCell>
        <mxCell id="eG-tpsc7ZjEbIQ_qfpCt-9" value="&lt;font&gt;A&lt;/font&gt;" style="ellipse;whiteSpace=wrap;html=1;aspect=fixed;fontColor=#000000;" parent="1" vertex="1">
          <mxGeometry x="120" y="200" width="40" height="40" as="geometry" />
        </mxCell>
        <mxCell id="eG-tpsc7ZjEbIQ_qfpCt-22" value="" style="edgeStyle=orthogonalEdgeStyle;rounded=0;orthogonalLoop=1;jettySize=auto;html=1;fontColor=#000000;" parent="1" source="eG-tpsc7ZjEbIQ_qfpCt-10" target="eG-tpsc7ZjEbIQ_qfpCt-11" edge="1">
          <mxGeometry relative="1" as="geometry" />
        </mxCell>
        <mxCell id="eG-tpsc7ZjEbIQ_qfpCt-27" style="rounded=0;orthogonalLoop=1;jettySize=auto;html=1;entryX=1;entryY=0;entryDx=0;entryDy=0;fontColor=#000000;" parent="1" source="eG-tpsc7ZjEbIQ_qfpCt-10" target="eG-tpsc7ZjEbIQ_qfpCt-16" edge="1">
          <mxGeometry relative="1" as="geometry" />
        </mxCell>
        <mxCell id="eG-tpsc7ZjEbIQ_qfpCt-10" value="&lt;font&gt;B&lt;/font&gt;" style="ellipse;whiteSpace=wrap;html=1;aspect=fixed;fontColor=#000000;" parent="1" vertex="1">
          <mxGeometry x="200" y="200" width="40" height="40" as="geometry" />
        </mxCell>
        <mxCell id="eG-tpsc7ZjEbIQ_qfpCt-23" value="" style="edgeStyle=orthogonalEdgeStyle;rounded=0;orthogonalLoop=1;jettySize=auto;html=1;fontColor=#000000;" parent="1" source="eG-tpsc7ZjEbIQ_qfpCt-11" target="eG-tpsc7ZjEbIQ_qfpCt-12" edge="1">
          <mxGeometry relative="1" as="geometry" />
        </mxCell>
        <mxCell id="eG-tpsc7ZjEbIQ_qfpCt-11" value="&lt;font&gt;C&lt;/font&gt;" style="ellipse;whiteSpace=wrap;html=1;aspect=fixed;fontColor=#000000;" parent="1" vertex="1">
          <mxGeometry x="280" y="200" width="40" height="40" as="geometry" />
        </mxCell>
        <mxCell id="eG-tpsc7ZjEbIQ_qfpCt-24" value="" style="edgeStyle=orthogonalEdgeStyle;rounded=0;orthogonalLoop=1;jettySize=auto;html=1;fontColor=#000000;" parent="1" source="eG-tpsc7ZjEbIQ_qfpCt-12" target="eG-tpsc7ZjEbIQ_qfpCt-13" edge="1">
          <mxGeometry relative="1" as="geometry" />
        </mxCell>
        <mxCell id="eG-tpsc7ZjEbIQ_qfpCt-25" value="" style="edgeStyle=orthogonalEdgeStyle;rounded=0;orthogonalLoop=1;jettySize=auto;html=1;fontColor=#000000;" parent="1" source="eG-tpsc7ZjEbIQ_qfpCt-12" target="eG-tpsc7ZjEbIQ_qfpCt-14" edge="1">
          <mxGeometry relative="1" as="geometry" />
        </mxCell>
        <mxCell id="eG-tpsc7ZjEbIQ_qfpCt-12" value="&lt;font&gt;D&lt;/font&gt;" style="ellipse;whiteSpace=wrap;html=1;aspect=fixed;fontColor=#000000;" parent="1" vertex="1">
          <mxGeometry x="360" y="200" width="40" height="40" as="geometry" />
        </mxCell>
        <mxCell id="eG-tpsc7ZjEbIQ_qfpCt-13" value="&lt;font&gt;E&lt;/font&gt;" style="ellipse;whiteSpace=wrap;html=1;aspect=fixed;fontColor=#000000;" parent="1" vertex="1">
          <mxGeometry x="360" y="120" width="40" height="40" as="geometry" />
        </mxCell>
        <mxCell id="eG-tpsc7ZjEbIQ_qfpCt-26" value="" style="edgeStyle=orthogonalEdgeStyle;rounded=0;orthogonalLoop=1;jettySize=auto;html=1;fontColor=#000000;" parent="1" source="eG-tpsc7ZjEbIQ_qfpCt-14" target="eG-tpsc7ZjEbIQ_qfpCt-15" edge="1">
          <mxGeometry relative="1" as="geometry" />
        </mxCell>
        <mxCell id="eG-tpsc7ZjEbIQ_qfpCt-14" value="&lt;font&gt;F&lt;/font&gt;" style="ellipse;whiteSpace=wrap;html=1;aspect=fixed;fontColor=#000000;" parent="1" vertex="1">
          <mxGeometry x="360" y="280" width="40" height="40" as="geometry" />
        </mxCell>
        <mxCell id="eG-tpsc7ZjEbIQ_qfpCt-15" value="&lt;font&gt;G&lt;/font&gt;" style="ellipse;whiteSpace=wrap;html=1;aspect=fixed;fontColor=#000000;" parent="1" vertex="1">
          <mxGeometry x="280" y="280" width="40" height="40" as="geometry" />
        </mxCell>
        <mxCell id="eG-tpsc7ZjEbIQ_qfpCt-16" value="&lt;font&gt;K&lt;/font&gt;" style="ellipse;whiteSpace=wrap;html=1;aspect=fixed;fontColor=#000000;" parent="1" vertex="1">
          <mxGeometry x="120" y="280" width="40" height="40" as="geometry" />
        </mxCell>
        <mxCell id="eG-tpsc7ZjEbIQ_qfpCt-30" value="" style="edgeStyle=none;rounded=0;orthogonalLoop=1;jettySize=auto;html=1;fontColor=#000000;" parent="1" source="eG-tpsc7ZjEbIQ_qfpCt-17" target="eG-tpsc7ZjEbIQ_qfpCt-11" edge="1">
          <mxGeometry relative="1" as="geometry" />
        </mxCell>
        <mxCell id="eG-tpsc7ZjEbIQ_qfpCt-17" value="H" style="ellipse;whiteSpace=wrap;html=1;aspect=fixed;fontColor=#000000;" parent="1" vertex="1">
          <mxGeometry x="280" y="120" width="40" height="40" as="geometry" />
        </mxCell>
        <mxCell id="eG-tpsc7ZjEbIQ_qfpCt-28" value="" style="edgeStyle=none;rounded=0;orthogonalLoop=1;jettySize=auto;html=1;fontColor=#000000;" parent="1" source="eG-tpsc7ZjEbIQ_qfpCt-18" target="eG-tpsc7ZjEbIQ_qfpCt-19" edge="1">
          <mxGeometry relative="1" as="geometry" />
        </mxCell>
        <mxCell id="eG-tpsc7ZjEbIQ_qfpCt-29" value="" style="edgeStyle=none;rounded=0;orthogonalLoop=1;jettySize=auto;html=1;fontColor=#000000;" parent="1" source="eG-tpsc7ZjEbIQ_qfpCt-18" target="eG-tpsc7ZjEbIQ_qfpCt-17" edge="1">
          <mxGeometry relative="1" as="geometry" />
        </mxCell>
        <mxCell id="eG-tpsc7ZjEbIQ_qfpCt-18" value="I" style="ellipse;whiteSpace=wrap;html=1;aspect=fixed;fontColor=#000000;" parent="1" vertex="1">
          <mxGeometry x="200" y="120" width="40" height="40" as="geometry" />
        </mxCell>
        <mxCell id="eG-tpsc7ZjEbIQ_qfpCt-19" value="J" style="ellipse;whiteSpace=wrap;html=1;aspect=fixed;fontColor=#000000;" parent="1" vertex="1">
          <mxGeometry x="120" y="120" width="40" height="40" as="geometry" />
        </mxCell>
        <mxCell id="eG-tpsc7ZjEbIQ_qfpCt-31" value="" style="edgeStyle=orthogonalEdgeStyle;rounded=0;orthogonalLoop=1;jettySize=auto;html=1;" parent="1" source="eG-tpsc7ZjEbIQ_qfpCt-32" target="eG-tpsc7ZjEbIQ_qfpCt-34" edge="1">
          <mxGeometry relative="1" as="geometry" />
        </mxCell>
        <mxCell id="eG-tpsc7ZjEbIQ_qfpCt-32" value="&lt;font color=&quot;#ffffff&quot;&gt;GC Root&lt;/font&gt;" style="whiteSpace=wrap;html=1;aspect=fixed;fillColor=#000000;" parent="1" vertex="1">
          <mxGeometry x="40" y="480" width="40" height="40" as="geometry" />
        </mxCell>
        <mxCell id="eG-tpsc7ZjEbIQ_qfpCt-33" value="" style="edgeStyle=orthogonalEdgeStyle;orthogonalLoop=1;jettySize=auto;html=1;fontColor=#FFFFFF;fontSize=12;fillColor=#000000;" parent="1" source="eG-tpsc7ZjEbIQ_qfpCt-34" target="eG-tpsc7ZjEbIQ_qfpCt-37" edge="1">
          <mxGeometry relative="1" as="geometry" />
        </mxCell>
        <mxCell id="eG-tpsc7ZjEbIQ_qfpCt-34" value="&lt;font&gt;A&lt;/font&gt;" style="ellipse;whiteSpace=wrap;html=1;aspect=fixed;fontColor=#FFFFFF;fillColor=#000000;" parent="1" vertex="1">
          <mxGeometry x="120" y="480" width="40" height="40" as="geometry" />
        </mxCell>
        <mxCell id="eG-tpsc7ZjEbIQ_qfpCt-35" value="" style="edgeStyle=orthogonalEdgeStyle;rounded=0;orthogonalLoop=1;jettySize=auto;html=1;fontColor=#000000;" parent="1" source="eG-tpsc7ZjEbIQ_qfpCt-37" target="eG-tpsc7ZjEbIQ_qfpCt-39" edge="1">
          <mxGeometry relative="1" as="geometry" />
        </mxCell>
        <mxCell id="eG-tpsc7ZjEbIQ_qfpCt-36" style="rounded=0;orthogonalLoop=1;jettySize=auto;html=1;entryX=1;entryY=0;entryDx=0;entryDy=0;fontColor=#000000;" parent="1" source="eG-tpsc7ZjEbIQ_qfpCt-37" target="eG-tpsc7ZjEbIQ_qfpCt-47" edge="1">
          <mxGeometry relative="1" as="geometry" />
        </mxCell>
        <mxCell id="eG-tpsc7ZjEbIQ_qfpCt-37" value="&lt;font&gt;B&lt;/font&gt;" style="ellipse;whiteSpace=wrap;html=1;aspect=fixed;fontColor=#333333;fillColor=#DBDBDB;strokeColor=#666666;" parent="1" vertex="1">
          <mxGeometry x="200" y="480" width="40" height="40" as="geometry" />
        </mxCell>
        <mxCell id="eG-tpsc7ZjEbIQ_qfpCt-38" value="" style="edgeStyle=orthogonalEdgeStyle;rounded=0;orthogonalLoop=1;jettySize=auto;html=1;fontColor=#000000;" parent="1" source="eG-tpsc7ZjEbIQ_qfpCt-39" target="eG-tpsc7ZjEbIQ_qfpCt-42" edge="1">
          <mxGeometry relative="1" as="geometry" />
        </mxCell>
        <mxCell id="eG-tpsc7ZjEbIQ_qfpCt-39" value="&lt;font&gt;C&lt;/font&gt;" style="ellipse;whiteSpace=wrap;html=1;aspect=fixed;fontColor=#000000;strokeColor=#000000;fillColor=#ffffff;" parent="1" vertex="1">
          <mxGeometry x="280" y="480" width="40" height="40" as="geometry" />
        </mxCell>
        <mxCell id="eG-tpsc7ZjEbIQ_qfpCt-40" value="" style="edgeStyle=orthogonalEdgeStyle;rounded=0;orthogonalLoop=1;jettySize=auto;html=1;fontColor=#000000;" parent="1" source="eG-tpsc7ZjEbIQ_qfpCt-42" target="eG-tpsc7ZjEbIQ_qfpCt-43" edge="1">
          <mxGeometry relative="1" as="geometry" />
        </mxCell>
        <mxCell id="eG-tpsc7ZjEbIQ_qfpCt-41" value="" style="edgeStyle=orthogonalEdgeStyle;rounded=0;orthogonalLoop=1;jettySize=auto;html=1;fontColor=#000000;" parent="1" source="eG-tpsc7ZjEbIQ_qfpCt-42" target="eG-tpsc7ZjEbIQ_qfpCt-45" edge="1">
          <mxGeometry relative="1" as="geometry" />
        </mxCell>
        <mxCell id="eG-tpsc7ZjEbIQ_qfpCt-42" value="&lt;font&gt;D&lt;/font&gt;" style="ellipse;whiteSpace=wrap;html=1;aspect=fixed;fontColor=#000000;" parent="1" vertex="1">
          <mxGeometry x="360" y="480" width="40" height="40" as="geometry" />
        </mxCell>
        <mxCell id="eG-tpsc7ZjEbIQ_qfpCt-43" value="&lt;font&gt;E&lt;/font&gt;" style="ellipse;whiteSpace=wrap;html=1;aspect=fixed;fontColor=#000000;" parent="1" vertex="1">
          <mxGeometry x="360" y="400" width="40" height="40" as="geometry" />
        </mxCell>
        <mxCell id="eG-tpsc7ZjEbIQ_qfpCt-44" value="" style="edgeStyle=orthogonalEdgeStyle;rounded=0;orthogonalLoop=1;jettySize=auto;html=1;fontColor=#000000;" parent="1" source="eG-tpsc7ZjEbIQ_qfpCt-45" target="eG-tpsc7ZjEbIQ_qfpCt-46" edge="1">
          <mxGeometry relative="1" as="geometry" />
        </mxCell>
        <mxCell id="eG-tpsc7ZjEbIQ_qfpCt-45" value="&lt;font&gt;F&lt;/font&gt;" style="ellipse;whiteSpace=wrap;html=1;aspect=fixed;fontColor=#000000;" parent="1" vertex="1">
          <mxGeometry x="360" y="560" width="40" height="40" as="geometry" />
        </mxCell>
        <mxCell id="eG-tpsc7ZjEbIQ_qfpCt-46" value="&lt;font&gt;G&lt;/font&gt;" style="ellipse;whiteSpace=wrap;html=1;aspect=fixed;fontColor=#000000;" parent="1" vertex="1">
          <mxGeometry x="280" y="560" width="40" height="40" as="geometry" />
        </mxCell>
        <mxCell id="eG-tpsc7ZjEbIQ_qfpCt-47" value="&lt;font&gt;K&lt;/font&gt;" style="ellipse;whiteSpace=wrap;html=1;aspect=fixed;fontColor=#000000;strokeColor=#000000;fillColor=#ffffff;" parent="1" vertex="1">
          <mxGeometry x="120" y="560" width="40" height="40" as="geometry" />
        </mxCell>
        <mxCell id="eG-tpsc7ZjEbIQ_qfpCt-48" value="" style="edgeStyle=none;rounded=0;orthogonalLoop=1;jettySize=auto;html=1;fontColor=#000000;" parent="1" source="eG-tpsc7ZjEbIQ_qfpCt-49" target="eG-tpsc7ZjEbIQ_qfpCt-39" edge="1">
          <mxGeometry relative="1" as="geometry" />
        </mxCell>
        <mxCell id="eG-tpsc7ZjEbIQ_qfpCt-49" value="H" style="ellipse;whiteSpace=wrap;html=1;aspect=fixed;fontColor=#000000;" parent="1" vertex="1">
          <mxGeometry x="280" y="400" width="40" height="40" as="geometry" />
        </mxCell>
        <mxCell id="eG-tpsc7ZjEbIQ_qfpCt-50" value="" style="edgeStyle=none;rounded=0;orthogonalLoop=1;jettySize=auto;html=1;fontColor=#000000;" parent="1" source="eG-tpsc7ZjEbIQ_qfpCt-52" target="eG-tpsc7ZjEbIQ_qfpCt-53" edge="1">
          <mxGeometry relative="1" as="geometry" />
        </mxCell>
        <mxCell id="eG-tpsc7ZjEbIQ_qfpCt-51" value="" style="edgeStyle=none;rounded=0;orthogonalLoop=1;jettySize=auto;html=1;fontColor=#000000;" parent="1" source="eG-tpsc7ZjEbIQ_qfpCt-52" target="eG-tpsc7ZjEbIQ_qfpCt-49" edge="1">
          <mxGeometry relative="1" as="geometry" />
        </mxCell>
        <mxCell id="eG-tpsc7ZjEbIQ_qfpCt-52" value="I" style="ellipse;whiteSpace=wrap;html=1;aspect=fixed;fontColor=#000000;" parent="1" vertex="1">
          <mxGeometry x="200" y="400" width="40" height="40" as="geometry" />
        </mxCell>
        <mxCell id="eG-tpsc7ZjEbIQ_qfpCt-53" value="J" style="ellipse;whiteSpace=wrap;html=1;aspect=fixed;fontColor=#000000;" parent="1" vertex="1">
          <mxGeometry x="120" y="400" width="40" height="40" as="geometry" />
        </mxCell>
        <mxCell id="eG-tpsc7ZjEbIQ_qfpCt-54" value="" style="edgeStyle=orthogonalEdgeStyle;rounded=0;orthogonalLoop=1;jettySize=auto;html=1;" parent="1" source="eG-tpsc7ZjEbIQ_qfpCt-55" target="eG-tpsc7ZjEbIQ_qfpCt-57" edge="1">
          <mxGeometry relative="1" as="geometry" />
        </mxCell>
        <mxCell id="eG-tpsc7ZjEbIQ_qfpCt-55" value="&lt;font color=&quot;#ffffff&quot;&gt;GC Root&lt;/font&gt;" style="whiteSpace=wrap;html=1;aspect=fixed;fillColor=#000000;" parent="1" vertex="1">
          <mxGeometry x="40" y="760" width="40" height="40" as="geometry" />
        </mxCell>
        <mxCell id="eG-tpsc7ZjEbIQ_qfpCt-56" value="" style="edgeStyle=orthogonalEdgeStyle;orthogonalLoop=1;jettySize=auto;html=1;fontColor=#FFFFFF;fontSize=12;fillColor=#000000;" parent="1" source="eG-tpsc7ZjEbIQ_qfpCt-57" target="eG-tpsc7ZjEbIQ_qfpCt-60" edge="1">
          <mxGeometry relative="1" as="geometry" />
        </mxCell>
        <mxCell id="eG-tpsc7ZjEbIQ_qfpCt-57" value="&lt;font&gt;A&lt;/font&gt;" style="ellipse;whiteSpace=wrap;html=1;aspect=fixed;fontColor=#FFFFFF;fillColor=#000000;" parent="1" vertex="1">
          <mxGeometry x="120" y="760" width="40" height="40" as="geometry" />
        </mxCell>
        <mxCell id="eG-tpsc7ZjEbIQ_qfpCt-58" value="" style="edgeStyle=orthogonalEdgeStyle;rounded=0;orthogonalLoop=1;jettySize=auto;html=1;fontColor=#000000;" parent="1" source="eG-tpsc7ZjEbIQ_qfpCt-60" target="eG-tpsc7ZjEbIQ_qfpCt-62" edge="1">
          <mxGeometry relative="1" as="geometry" />
        </mxCell>
        <mxCell id="eG-tpsc7ZjEbIQ_qfpCt-59" style="rounded=0;orthogonalLoop=1;jettySize=auto;html=1;entryX=1;entryY=0;entryDx=0;entryDy=0;fontColor=#000000;" parent="1" source="eG-tpsc7ZjEbIQ_qfpCt-60" target="eG-tpsc7ZjEbIQ_qfpCt-70" edge="1">
          <mxGeometry relative="1" as="geometry" />
        </mxCell>
        <mxCell id="eG-tpsc7ZjEbIQ_qfpCt-60" value="&lt;font&gt;B&lt;/font&gt;" style="ellipse;whiteSpace=wrap;html=1;aspect=fixed;fontColor=#FFFFFF;fillColor=#000000;" parent="1" vertex="1">
          <mxGeometry x="200" y="760" width="40" height="40" as="geometry" />
        </mxCell>
        <mxCell id="eG-tpsc7ZjEbIQ_qfpCt-61" value="" style="edgeStyle=orthogonalEdgeStyle;orthogonalLoop=1;jettySize=auto;html=1;fontColor=#FFFFFF;fontSize=12;fillColor=#000000;" parent="1" source="eG-tpsc7ZjEbIQ_qfpCt-62" target="eG-tpsc7ZjEbIQ_qfpCt-65" edge="1">
          <mxGeometry relative="1" as="geometry" />
        </mxCell>
        <mxCell id="eG-tpsc7ZjEbIQ_qfpCt-62" value="&lt;font&gt;C&lt;/font&gt;" style="ellipse;whiteSpace=wrap;html=1;aspect=fixed;fontColor=#FFFFFF;strokeColor=#000000;fillColor=#000000;" parent="1" vertex="1">
          <mxGeometry x="280" y="760" width="40" height="40" as="geometry" />
        </mxCell>
        <mxCell id="eG-tpsc7ZjEbIQ_qfpCt-63" value="" style="edgeStyle=orthogonalEdgeStyle;orthogonalLoop=1;jettySize=auto;html=1;fontColor=#FFFFFF;fontSize=12;fillColor=#000000;" parent="1" source="eG-tpsc7ZjEbIQ_qfpCt-65" target="eG-tpsc7ZjEbIQ_qfpCt-66" edge="1">
          <mxGeometry relative="1" as="geometry" />
        </mxCell>
        <mxCell id="eG-tpsc7ZjEbIQ_qfpCt-64" value="" style="edgeStyle=orthogonalEdgeStyle;orthogonalLoop=1;jettySize=auto;html=1;fontColor=#FFFFFF;fontSize=12;fillColor=#000000;" parent="1" source="eG-tpsc7ZjEbIQ_qfpCt-65" target="eG-tpsc7ZjEbIQ_qfpCt-68" edge="1">
          <mxGeometry relative="1" as="geometry" />
        </mxCell>
        <mxCell id="eG-tpsc7ZjEbIQ_qfpCt-65" value="&lt;font&gt;D&lt;/font&gt;" style="ellipse;whiteSpace=wrap;html=1;aspect=fixed;fontColor=#FFFFFF;fillColor=#000000;" parent="1" vertex="1">
          <mxGeometry x="360" y="760" width="40" height="40" as="geometry" />
        </mxCell>
        <mxCell id="eG-tpsc7ZjEbIQ_qfpCt-66" value="&lt;font&gt;E&lt;/font&gt;" style="ellipse;whiteSpace=wrap;html=1;aspect=fixed;fontColor=#FFFFFF;fillColor=#000000;" parent="1" vertex="1">
          <mxGeometry x="360" y="680" width="40" height="40" as="geometry" />
        </mxCell>
        <mxCell id="eG-tpsc7ZjEbIQ_qfpCt-67" value="" style="edgeStyle=orthogonalEdgeStyle;orthogonalLoop=1;jettySize=auto;html=1;fontColor=#FFFFFF;fontSize=12;fillColor=#000000;" parent="1" source="eG-tpsc7ZjEbIQ_qfpCt-68" target="eG-tpsc7ZjEbIQ_qfpCt-69" edge="1">
          <mxGeometry relative="1" as="geometry" />
        </mxCell>
        <mxCell id="eG-tpsc7ZjEbIQ_qfpCt-68" value="&lt;font&gt;F&lt;/font&gt;" style="ellipse;whiteSpace=wrap;html=1;aspect=fixed;fontColor=#FFFFFF;fillColor=#000000;" parent="1" vertex="1">
          <mxGeometry x="360" y="840" width="40" height="40" as="geometry" />
        </mxCell>
        <mxCell id="eG-tpsc7ZjEbIQ_qfpCt-69" value="&lt;font&gt;G&lt;/font&gt;" style="ellipse;whiteSpace=wrap;html=1;aspect=fixed;fontColor=#FFFFFF;fillColor=#000000;" parent="1" vertex="1">
          <mxGeometry x="280" y="840" width="40" height="40" as="geometry" />
        </mxCell>
        <mxCell id="eG-tpsc7ZjEbIQ_qfpCt-70" value="&lt;font&gt;K&lt;/font&gt;" style="ellipse;whiteSpace=wrap;html=1;aspect=fixed;fontColor=#FFFFFF;strokeColor=#000000;fillColor=#000000;" parent="1" vertex="1">
          <mxGeometry x="120" y="840" width="40" height="40" as="geometry" />
        </mxCell>
        <mxCell id="eG-tpsc7ZjEbIQ_qfpCt-71" value="" style="edgeStyle=none;rounded=0;orthogonalLoop=1;jettySize=auto;html=1;fontColor=#000000;" parent="1" source="eG-tpsc7ZjEbIQ_qfpCt-72" target="eG-tpsc7ZjEbIQ_qfpCt-62" edge="1">
          <mxGeometry relative="1" as="geometry" />
        </mxCell>
        <mxCell id="eG-tpsc7ZjEbIQ_qfpCt-72" value="H" style="ellipse;whiteSpace=wrap;html=1;aspect=fixed;fontColor=#000000;" parent="1" vertex="1">
          <mxGeometry x="280" y="680" width="40" height="40" as="geometry" />
        </mxCell>
        <mxCell id="eG-tpsc7ZjEbIQ_qfpCt-73" value="" style="edgeStyle=none;rounded=0;orthogonalLoop=1;jettySize=auto;html=1;fontColor=#000000;" parent="1" source="eG-tpsc7ZjEbIQ_qfpCt-75" target="eG-tpsc7ZjEbIQ_qfpCt-76" edge="1">
          <mxGeometry relative="1" as="geometry" />
        </mxCell>
        <mxCell id="eG-tpsc7ZjEbIQ_qfpCt-74" value="" style="edgeStyle=none;rounded=0;orthogonalLoop=1;jettySize=auto;html=1;fontColor=#000000;" parent="1" source="eG-tpsc7ZjEbIQ_qfpCt-75" target="eG-tpsc7ZjEbIQ_qfpCt-72" edge="1">
          <mxGeometry relative="1" as="geometry" />
        </mxCell>
        <mxCell id="eG-tpsc7ZjEbIQ_qfpCt-75" value="I" style="ellipse;whiteSpace=wrap;html=1;aspect=fixed;fontColor=#000000;" parent="1" vertex="1">
          <mxGeometry x="200" y="680" width="40" height="40" as="geometry" />
        </mxCell>
        <mxCell id="eG-tpsc7ZjEbIQ_qfpCt-76" value="J" style="ellipse;whiteSpace=wrap;html=1;aspect=fixed;fontColor=#000000;" parent="1" vertex="1">
          <mxGeometry x="120" y="680" width="40" height="40" as="geometry" />
        </mxCell>
        <mxCell id="eG-tpsc7ZjEbIQ_qfpCt-77" value="" style="edgeStyle=orthogonalEdgeStyle;rounded=0;orthogonalLoop=1;jettySize=auto;html=1;" parent="1" source="eG-tpsc7ZjEbIQ_qfpCt-78" target="eG-tpsc7ZjEbIQ_qfpCt-80" edge="1">
          <mxGeometry relative="1" as="geometry" />
        </mxCell>
        <mxCell id="eG-tpsc7ZjEbIQ_qfpCt-78" value="&lt;font color=&quot;#ffffff&quot;&gt;GC Root&lt;/font&gt;" style="whiteSpace=wrap;html=1;aspect=fixed;fillColor=#000000;" parent="1" vertex="1">
          <mxGeometry x="40" y="1040" width="40" height="40" as="geometry" />
        </mxCell>
        <mxCell id="eG-tpsc7ZjEbIQ_qfpCt-79" value="" style="edgeStyle=orthogonalEdgeStyle;orthogonalLoop=1;jettySize=auto;html=1;fontColor=#FFFFFF;fontSize=12;fillColor=#000000;" parent="1" source="eG-tpsc7ZjEbIQ_qfpCt-80" target="eG-tpsc7ZjEbIQ_qfpCt-83" edge="1">
          <mxGeometry relative="1" as="geometry" />
        </mxCell>
        <mxCell id="eG-tpsc7ZjEbIQ_qfpCt-100" value="" style="edgeStyle=none;rounded=0;orthogonalLoop=1;jettySize=auto;html=1;fontColor=#FFFFFF;shape=flexArrow;width=4;endSize=3.186666666666667;endWidth=7;" parent="1" source="eG-tpsc7ZjEbIQ_qfpCt-80" target="eG-tpsc7ZjEbIQ_qfpCt-93" edge="1">
          <mxGeometry relative="1" as="geometry" />
        </mxCell>
        <mxCell id="eG-tpsc7ZjEbIQ_qfpCt-80" value="&lt;font&gt;A&lt;/font&gt;" style="ellipse;whiteSpace=wrap;html=1;aspect=fixed;fontColor=#FFFFFF;fillColor=#000000;" parent="1" vertex="1">
          <mxGeometry x="120" y="1040" width="40" height="40" as="geometry" />
        </mxCell>
        <mxCell id="eG-tpsc7ZjEbIQ_qfpCt-81" value="" style="edgeStyle=orthogonalEdgeStyle;rounded=0;orthogonalLoop=1;jettySize=auto;html=1;fontColor=#000000;" parent="1" source="eG-tpsc7ZjEbIQ_qfpCt-83" target="eG-tpsc7ZjEbIQ_qfpCt-85" edge="1">
          <mxGeometry relative="1" as="geometry" />
        </mxCell>
        <mxCell id="eG-tpsc7ZjEbIQ_qfpCt-82" style="rounded=0;orthogonalLoop=1;jettySize=auto;html=1;entryX=1;entryY=0;entryDx=0;entryDy=0;fontColor=#000000;dashed=1;" parent="1" source="eG-tpsc7ZjEbIQ_qfpCt-83" target="eG-tpsc7ZjEbIQ_qfpCt-93" edge="1">
          <mxGeometry relative="1" as="geometry" />
        </mxCell>
        <mxCell id="eG-tpsc7ZjEbIQ_qfpCt-83" value="&lt;font&gt;B&lt;/font&gt;" style="ellipse;whiteSpace=wrap;html=1;aspect=fixed;fontColor=#333333;fillColor=#DBDBDB;strokeColor=#666666;" parent="1" vertex="1">
          <mxGeometry x="200" y="1040" width="40" height="40" as="geometry" />
        </mxCell>
        <mxCell id="eG-tpsc7ZjEbIQ_qfpCt-84" value="" style="edgeStyle=orthogonalEdgeStyle;orthogonalLoop=1;jettySize=auto;html=1;fontColor=#000000;fontSize=12;fillColor=#ffffff;" parent="1" source="eG-tpsc7ZjEbIQ_qfpCt-85" target="eG-tpsc7ZjEbIQ_qfpCt-88" edge="1">
          <mxGeometry relative="1" as="geometry" />
        </mxCell>
        <mxCell id="eG-tpsc7ZjEbIQ_qfpCt-85" value="&lt;font&gt;C&lt;/font&gt;" style="ellipse;whiteSpace=wrap;html=1;aspect=fixed;fontColor=#000000;strokeColor=#000000;fillColor=#ffffff;" parent="1" vertex="1">
          <mxGeometry x="280" y="1040" width="40" height="40" as="geometry" />
        </mxCell>
        <mxCell id="eG-tpsc7ZjEbIQ_qfpCt-86" value="" style="edgeStyle=orthogonalEdgeStyle;orthogonalLoop=1;jettySize=auto;html=1;fontColor=#000000;fontSize=12;fillColor=#ffffff;" parent="1" source="eG-tpsc7ZjEbIQ_qfpCt-88" target="eG-tpsc7ZjEbIQ_qfpCt-89" edge="1">
          <mxGeometry relative="1" as="geometry" />
        </mxCell>
        <mxCell id="eG-tpsc7ZjEbIQ_qfpCt-87" value="" style="edgeStyle=orthogonalEdgeStyle;orthogonalLoop=1;jettySize=auto;html=1;fontColor=#000000;fontSize=12;fillColor=#ffffff;" parent="1" source="eG-tpsc7ZjEbIQ_qfpCt-88" target="eG-tpsc7ZjEbIQ_qfpCt-91" edge="1">
          <mxGeometry relative="1" as="geometry" />
        </mxCell>
        <mxCell id="eG-tpsc7ZjEbIQ_qfpCt-88" value="&lt;font&gt;D&lt;/font&gt;" style="ellipse;whiteSpace=wrap;html=1;aspect=fixed;fontColor=#000000;fillColor=#ffffff;" parent="1" vertex="1">
          <mxGeometry x="360" y="1040" width="40" height="40" as="geometry" />
        </mxCell>
        <mxCell id="eG-tpsc7ZjEbIQ_qfpCt-89" value="&lt;font&gt;E&lt;/font&gt;" style="ellipse;whiteSpace=wrap;html=1;aspect=fixed;fontColor=#000000;fillColor=#ffffff;" parent="1" vertex="1">
          <mxGeometry x="360" y="960" width="40" height="40" as="geometry" />
        </mxCell>
        <mxCell id="eG-tpsc7ZjEbIQ_qfpCt-90" value="" style="edgeStyle=orthogonalEdgeStyle;orthogonalLoop=1;jettySize=auto;html=1;fontColor=#000000;fontSize=12;fillColor=#ffffff;" parent="1" source="eG-tpsc7ZjEbIQ_qfpCt-91" target="eG-tpsc7ZjEbIQ_qfpCt-92" edge="1">
          <mxGeometry relative="1" as="geometry" />
        </mxCell>
        <mxCell id="eG-tpsc7ZjEbIQ_qfpCt-91" value="&lt;font&gt;F&lt;/font&gt;" style="ellipse;whiteSpace=wrap;html=1;aspect=fixed;fontColor=#000000;fillColor=#ffffff;" parent="1" vertex="1">
          <mxGeometry x="360" y="1120" width="40" height="40" as="geometry" />
        </mxCell>
        <mxCell id="eG-tpsc7ZjEbIQ_qfpCt-92" value="&lt;font&gt;G&lt;/font&gt;" style="ellipse;whiteSpace=wrap;html=1;aspect=fixed;fontColor=#000000;fillColor=#ffffff;" parent="1" vertex="1">
          <mxGeometry x="280" y="1120" width="40" height="40" as="geometry" />
        </mxCell>
        <mxCell id="eG-tpsc7ZjEbIQ_qfpCt-93" value="&lt;font&gt;K&lt;/font&gt;" style="ellipse;whiteSpace=wrap;html=1;aspect=fixed;fontColor=#000000;strokeColor=#000000;fillColor=#ffffff;" parent="1" vertex="1">
          <mxGeometry x="120" y="1120" width="40" height="40" as="geometry" />
        </mxCell>
        <mxCell id="eG-tpsc7ZjEbIQ_qfpCt-94" value="" style="edgeStyle=none;orthogonalLoop=1;jettySize=auto;html=1;fontColor=#000000;fontSize=12;fillColor=#ffffff;" parent="1" source="eG-tpsc7ZjEbIQ_qfpCt-95" target="eG-tpsc7ZjEbIQ_qfpCt-85" edge="1">
          <mxGeometry relative="1" as="geometry" />
        </mxCell>
        <mxCell id="eG-tpsc7ZjEbIQ_qfpCt-95" value="H" style="ellipse;whiteSpace=wrap;html=1;aspect=fixed;fontColor=#000000;" parent="1" vertex="1">
          <mxGeometry x="280" y="960" width="40" height="40" as="geometry" />
        </mxCell>
        <mxCell id="eG-tpsc7ZjEbIQ_qfpCt-96" value="" style="edgeStyle=none;rounded=0;orthogonalLoop=1;jettySize=auto;html=1;fontColor=#000000;" parent="1" source="eG-tpsc7ZjEbIQ_qfpCt-98" target="eG-tpsc7ZjEbIQ_qfpCt-99" edge="1">
          <mxGeometry relative="1" as="geometry" />
        </mxCell>
        <mxCell id="eG-tpsc7ZjEbIQ_qfpCt-97" value="" style="edgeStyle=none;rounded=0;orthogonalLoop=1;jettySize=auto;html=1;fontColor=#000000;" parent="1" source="eG-tpsc7ZjEbIQ_qfpCt-98" target="eG-tpsc7ZjEbIQ_qfpCt-95" edge="1">
          <mxGeometry relative="1" as="geometry" />
        </mxCell>
        <mxCell id="eG-tpsc7ZjEbIQ_qfpCt-98" value="I" style="ellipse;whiteSpace=wrap;html=1;aspect=fixed;fontColor=#000000;" parent="1" vertex="1">
          <mxGeometry x="200" y="960" width="40" height="40" as="geometry" />
        </mxCell>
        <mxCell id="eG-tpsc7ZjEbIQ_qfpCt-99" value="J" style="ellipse;whiteSpace=wrap;html=1;aspect=fixed;fontColor=#000000;" parent="1" vertex="1">
          <mxGeometry x="120" y="960" width="40" height="40" as="geometry" />
        </mxCell>
        <mxCell id="eG-tpsc7ZjEbIQ_qfpCt-108" value="" style="group" parent="1" vertex="1" connectable="0">
          <mxGeometry x="80" y="1220" width="80" height="30" as="geometry" />
        </mxCell>
        <mxCell id="eG-tpsc7ZjEbIQ_qfpCt-103" value="" style="edgeStyle=none;rounded=0;orthogonalLoop=1;jettySize=auto;html=1;fontColor=#FFFFFF;shape=flexArrow;width=4;endSize=3.186666666666667;endWidth=7;" parent="eG-tpsc7ZjEbIQ_qfpCt-108" edge="1">
          <mxGeometry relative="1" as="geometry">
            <mxPoint as="sourcePoint" />
            <mxPoint x="80" as="targetPoint" />
          </mxGeometry>
        </mxCell>
        <mxCell id="eG-tpsc7ZjEbIQ_qfpCt-106" value="&lt;font color=&quot;#000000&quot; style=&quot;font-size: 10px&quot;&gt;新增引用&lt;/font&gt;" style="text;html=1;strokeColor=none;fillColor=none;align=center;verticalAlign=middle;whiteSpace=wrap;rounded=0;fontColor=#FFFFFF;" parent="eG-tpsc7ZjEbIQ_qfpCt-108" vertex="1">
          <mxGeometry x="10" y="10" width="60" height="20" as="geometry" />
        </mxCell>
        <mxCell id="eG-tpsc7ZjEbIQ_qfpCt-114" value="" style="group" parent="1" vertex="1" connectable="0">
          <mxGeometry x="200" y="1220" width="80" height="30" as="geometry" />
        </mxCell>
        <mxCell id="eG-tpsc7ZjEbIQ_qfpCt-104" style="rounded=0;orthogonalLoop=1;jettySize=auto;html=1;fontColor=#000000;dashed=1;" parent="eG-tpsc7ZjEbIQ_qfpCt-114" edge="1">
          <mxGeometry relative="1" as="geometry">
            <mxPoint as="sourcePoint" />
            <mxPoint x="80" as="targetPoint" />
          </mxGeometry>
        </mxCell>
        <mxCell id="eG-tpsc7ZjEbIQ_qfpCt-109" value="&lt;font color=&quot;#000000&quot; style=&quot;font-size: 10px&quot;&gt;删除引用&lt;/font&gt;" style="text;html=1;strokeColor=none;fillColor=none;align=center;verticalAlign=middle;whiteSpace=wrap;rounded=0;fontColor=#FFFFFF;" parent="eG-tpsc7ZjEbIQ_qfpCt-114" vertex="1">
          <mxGeometry x="10" y="10" width="60" height="20" as="geometry" />
        </mxCell>
        <mxCell id="eG-tpsc7ZjEbIQ_qfpCt-115" value="" style="group" parent="1" vertex="1" connectable="0">
          <mxGeometry x="320" y="1220" width="80" height="30" as="geometry" />
        </mxCell>
        <mxCell id="eG-tpsc7ZjEbIQ_qfpCt-105" value="" style="edgeStyle=orthogonalEdgeStyle;orthogonalLoop=1;jettySize=auto;html=1;fontColor=#FFFFFF;fontSize=12;fillColor=#000000;" parent="eG-tpsc7ZjEbIQ_qfpCt-115" edge="1">
          <mxGeometry relative="1" as="geometry">
            <mxPoint as="sourcePoint" />
            <mxPoint x="80" as="targetPoint" />
          </mxGeometry>
        </mxCell>
        <mxCell id="eG-tpsc7ZjEbIQ_qfpCt-110" value="&lt;font color=&quot;#000000&quot; style=&quot;font-size: 10px&quot;&gt;初始引用&lt;/font&gt;" style="text;html=1;strokeColor=none;fillColor=none;align=center;verticalAlign=middle;whiteSpace=wrap;rounded=0;fontColor=#FFFFFF;" parent="eG-tpsc7ZjEbIQ_qfpCt-115" vertex="1">
          <mxGeometry x="10" y="10" width="60" height="20" as="geometry" />
        </mxCell>
        <mxCell id="eG-tpsc7ZjEbIQ_qfpCt-116" value="" style="edgeStyle=orthogonalEdgeStyle;rounded=0;orthogonalLoop=1;jettySize=auto;html=1;" parent="1" source="eG-tpsc7ZjEbIQ_qfpCt-117" target="eG-tpsc7ZjEbIQ_qfpCt-120" edge="1">
          <mxGeometry relative="1" as="geometry" />
        </mxCell>
        <mxCell id="eG-tpsc7ZjEbIQ_qfpCt-117" value="&lt;font color=&quot;#ffffff&quot;&gt;GC Root&lt;/font&gt;" style="whiteSpace=wrap;html=1;aspect=fixed;fillColor=#000000;" parent="1" vertex="1">
          <mxGeometry x="40" y="1400" width="40" height="40" as="geometry" />
        </mxCell>
        <mxCell id="eG-tpsc7ZjEbIQ_qfpCt-118" value="" style="edgeStyle=orthogonalEdgeStyle;orthogonalLoop=1;jettySize=auto;html=1;fontColor=#FFFFFF;fontSize=12;fillColor=#000000;" parent="1" source="eG-tpsc7ZjEbIQ_qfpCt-120" target="eG-tpsc7ZjEbIQ_qfpCt-123" edge="1">
          <mxGeometry relative="1" as="geometry" />
        </mxCell>
        <mxCell id="eG-tpsc7ZjEbIQ_qfpCt-119" value="" style="edgeStyle=none;rounded=0;orthogonalLoop=1;jettySize=auto;html=1;fontColor=#FFFFFF;shape=flexArrow;width=4;endSize=3.186666666666667;endWidth=7;" parent="1" source="eG-tpsc7ZjEbIQ_qfpCt-120" target="eG-tpsc7ZjEbIQ_qfpCt-133" edge="1">
          <mxGeometry relative="1" as="geometry" />
        </mxCell>
        <mxCell id="eG-tpsc7ZjEbIQ_qfpCt-120" value="&lt;font&gt;A&lt;/font&gt;" style="ellipse;whiteSpace=wrap;html=1;aspect=fixed;fontColor=#FFFFFF;fillColor=#000000;" parent="1" vertex="1">
          <mxGeometry x="120" y="1400" width="40" height="40" as="geometry" />
        </mxCell>
        <mxCell id="eG-tpsc7ZjEbIQ_qfpCt-121" value="" style="edgeStyle=orthogonalEdgeStyle;orthogonalLoop=1;jettySize=auto;html=1;fontColor=#FFFFFF;fontSize=12;fillColor=#000000;" parent="1" source="eG-tpsc7ZjEbIQ_qfpCt-123" target="eG-tpsc7ZjEbIQ_qfpCt-125" edge="1">
          <mxGeometry relative="1" as="geometry" />
        </mxCell>
        <mxCell id="eG-tpsc7ZjEbIQ_qfpCt-122" style="rounded=0;orthogonalLoop=1;jettySize=auto;html=1;entryX=1;entryY=0;entryDx=0;entryDy=0;fontColor=#000000;dashed=1;" parent="1" source="eG-tpsc7ZjEbIQ_qfpCt-123" target="eG-tpsc7ZjEbIQ_qfpCt-133" edge="1">
          <mxGeometry relative="1" as="geometry" />
        </mxCell>
        <mxCell id="eG-tpsc7ZjEbIQ_qfpCt-123" value="&lt;font&gt;B&lt;/font&gt;" style="ellipse;whiteSpace=wrap;html=1;aspect=fixed;fontColor=#FFFFFF;fillColor=#000000;strokeColor=#000000;" parent="1" vertex="1">
          <mxGeometry x="200" y="1400" width="40" height="40" as="geometry" />
        </mxCell>
        <mxCell id="eG-tpsc7ZjEbIQ_qfpCt-124" value="" style="edgeStyle=orthogonalEdgeStyle;orthogonalLoop=1;jettySize=auto;html=1;fontColor=#000000;fontSize=12;fillColor=#ffffff;" parent="1" source="eG-tpsc7ZjEbIQ_qfpCt-125" target="eG-tpsc7ZjEbIQ_qfpCt-128" edge="1">
          <mxGeometry relative="1" as="geometry" />
        </mxCell>
        <mxCell id="eG-tpsc7ZjEbIQ_qfpCt-125" value="&lt;font&gt;C&lt;/font&gt;" style="ellipse;whiteSpace=wrap;html=1;aspect=fixed;fontColor=#FFFFFF;strokeColor=#000000;fillColor=#000000;" parent="1" vertex="1">
          <mxGeometry x="280" y="1400" width="40" height="40" as="geometry" />
        </mxCell>
        <mxCell id="eG-tpsc7ZjEbIQ_qfpCt-126" value="" style="edgeStyle=orthogonalEdgeStyle;orthogonalLoop=1;jettySize=auto;html=1;fontColor=#FFFFFF;fontSize=12;fillColor=#000000;" parent="1" source="eG-tpsc7ZjEbIQ_qfpCt-128" target="eG-tpsc7ZjEbIQ_qfpCt-129" edge="1">
          <mxGeometry relative="1" as="geometry" />
        </mxCell>
        <mxCell id="eG-tpsc7ZjEbIQ_qfpCt-127" value="" style="edgeStyle=orthogonalEdgeStyle;orthogonalLoop=1;jettySize=auto;html=1;fontColor=#FFFFFF;fontSize=12;fillColor=#000000;" parent="1" source="eG-tpsc7ZjEbIQ_qfpCt-128" target="eG-tpsc7ZjEbIQ_qfpCt-131" edge="1">
          <mxGeometry relative="1" as="geometry" />
        </mxCell>
        <mxCell id="eG-tpsc7ZjEbIQ_qfpCt-128" value="&lt;font&gt;D&lt;/font&gt;" style="ellipse;whiteSpace=wrap;html=1;aspect=fixed;fontColor=#FFFFFF;fillColor=#000000;strokeColor=#000000;" parent="1" vertex="1">
          <mxGeometry x="360" y="1400" width="40" height="40" as="geometry" />
        </mxCell>
        <mxCell id="eG-tpsc7ZjEbIQ_qfpCt-129" value="&lt;font&gt;E&lt;/font&gt;" style="ellipse;whiteSpace=wrap;html=1;aspect=fixed;fontColor=#FFFFFF;fillColor=#000000;" parent="1" vertex="1">
          <mxGeometry x="360" y="1320" width="40" height="40" as="geometry" />
        </mxCell>
        <mxCell id="eG-tpsc7ZjEbIQ_qfpCt-130" value="" style="edgeStyle=orthogonalEdgeStyle;orthogonalLoop=1;jettySize=auto;html=1;fontColor=#000000;fontSize=12;fillColor=#ffffff;" parent="1" source="eG-tpsc7ZjEbIQ_qfpCt-131" target="eG-tpsc7ZjEbIQ_qfpCt-132" edge="1">
          <mxGeometry relative="1" as="geometry" />
        </mxCell>
        <mxCell id="eG-tpsc7ZjEbIQ_qfpCt-131" value="&lt;font&gt;F&lt;/font&gt;" style="ellipse;whiteSpace=wrap;html=1;aspect=fixed;fontColor=#FFFFFF;fillColor=#000000;" parent="1" vertex="1">
          <mxGeometry x="360" y="1480" width="40" height="40" as="geometry" />
        </mxCell>
        <mxCell id="eG-tpsc7ZjEbIQ_qfpCt-132" value="&lt;font&gt;G&lt;/font&gt;" style="ellipse;whiteSpace=wrap;html=1;aspect=fixed;fontColor=#FFFFFF;fillColor=#000000;" parent="1" vertex="1">
          <mxGeometry x="280" y="1480" width="40" height="40" as="geometry" />
        </mxCell>
        <mxCell id="eG-tpsc7ZjEbIQ_qfpCt-133" value="&lt;font&gt;K&lt;/font&gt;" style="ellipse;whiteSpace=wrap;html=1;aspect=fixed;fontColor=#000000;strokeColor=#000000;fillColor=#ffffff;" parent="1" vertex="1">
          <mxGeometry x="120" y="1480" width="40" height="40" as="geometry" />
        </mxCell>
        <mxCell id="eG-tpsc7ZjEbIQ_qfpCt-134" value="" style="edgeStyle=none;orthogonalLoop=1;jettySize=auto;html=1;fontColor=#000000;fontSize=12;fillColor=#ffffff;" parent="1" source="eG-tpsc7ZjEbIQ_qfpCt-135" target="eG-tpsc7ZjEbIQ_qfpCt-125" edge="1">
          <mxGeometry relative="1" as="geometry" />
        </mxCell>
        <mxCell id="eG-tpsc7ZjEbIQ_qfpCt-135" value="H" style="ellipse;whiteSpace=wrap;html=1;aspect=fixed;fontColor=#000000;" parent="1" vertex="1">
          <mxGeometry x="280" y="1320" width="40" height="40" as="geometry" />
        </mxCell>
        <mxCell id="eG-tpsc7ZjEbIQ_qfpCt-136" value="" style="edgeStyle=none;rounded=0;orthogonalLoop=1;jettySize=auto;html=1;fontColor=#000000;" parent="1" source="eG-tpsc7ZjEbIQ_qfpCt-138" target="eG-tpsc7ZjEbIQ_qfpCt-139" edge="1">
          <mxGeometry relative="1" as="geometry" />
        </mxCell>
        <mxCell id="eG-tpsc7ZjEbIQ_qfpCt-137" value="" style="edgeStyle=none;rounded=0;orthogonalLoop=1;jettySize=auto;html=1;fontColor=#000000;" parent="1" source="eG-tpsc7ZjEbIQ_qfpCt-138" target="eG-tpsc7ZjEbIQ_qfpCt-135" edge="1">
          <mxGeometry relative="1" as="geometry" />
        </mxCell>
        <mxCell id="eG-tpsc7ZjEbIQ_qfpCt-138" value="I" style="ellipse;whiteSpace=wrap;html=1;aspect=fixed;fontColor=#000000;" parent="1" vertex="1">
          <mxGeometry x="200" y="1320" width="40" height="40" as="geometry" />
        </mxCell>
        <mxCell id="eG-tpsc7ZjEbIQ_qfpCt-139" value="J" style="ellipse;whiteSpace=wrap;html=1;aspect=fixed;fontColor=#000000;" parent="1" vertex="1">
          <mxGeometry x="120" y="1320" width="40" height="40" as="geometry" />
        </mxCell>
        <mxCell id="eG-tpsc7ZjEbIQ_qfpCt-140" value="" style="group" parent="1" vertex="1" connectable="0">
          <mxGeometry x="80" y="1580" width="80" height="30" as="geometry" />
        </mxCell>
        <mxCell id="eG-tpsc7ZjEbIQ_qfpCt-141" value="" style="edgeStyle=none;rounded=0;orthogonalLoop=1;jettySize=auto;html=1;fontColor=#FFFFFF;shape=flexArrow;width=4;endSize=3.186666666666667;endWidth=7;" parent="eG-tpsc7ZjEbIQ_qfpCt-140" edge="1">
          <mxGeometry relative="1" as="geometry">
            <mxPoint as="sourcePoint" />
            <mxPoint x="80" as="targetPoint" />
          </mxGeometry>
        </mxCell>
        <mxCell id="eG-tpsc7ZjEbIQ_qfpCt-142" value="&lt;font color=&quot;#000000&quot; style=&quot;font-size: 10px&quot;&gt;新增引用&lt;/font&gt;" style="text;html=1;strokeColor=none;fillColor=none;align=center;verticalAlign=middle;whiteSpace=wrap;rounded=0;fontColor=#FFFFFF;" parent="eG-tpsc7ZjEbIQ_qfpCt-140" vertex="1">
          <mxGeometry x="10" y="10" width="60" height="20" as="geometry" />
        </mxCell>
        <mxCell id="eG-tpsc7ZjEbIQ_qfpCt-143" value="" style="group" parent="1" vertex="1" connectable="0">
          <mxGeometry x="200" y="1580" width="80" height="30" as="geometry" />
        </mxCell>
        <mxCell id="eG-tpsc7ZjEbIQ_qfpCt-144" style="rounded=0;orthogonalLoop=1;jettySize=auto;html=1;fontColor=#000000;dashed=1;" parent="eG-tpsc7ZjEbIQ_qfpCt-143" edge="1">
          <mxGeometry relative="1" as="geometry">
            <mxPoint as="sourcePoint" />
            <mxPoint x="80" as="targetPoint" />
          </mxGeometry>
        </mxCell>
        <mxCell id="eG-tpsc7ZjEbIQ_qfpCt-145" value="&lt;font color=&quot;#000000&quot; style=&quot;font-size: 10px&quot;&gt;删除引用&lt;/font&gt;" style="text;html=1;strokeColor=none;fillColor=none;align=center;verticalAlign=middle;whiteSpace=wrap;rounded=0;fontColor=#FFFFFF;" parent="eG-tpsc7ZjEbIQ_qfpCt-143" vertex="1">
          <mxGeometry x="10" y="10" width="60" height="20" as="geometry" />
        </mxCell>
        <mxCell id="eG-tpsc7ZjEbIQ_qfpCt-146" value="" style="group" parent="1" vertex="1" connectable="0">
          <mxGeometry x="320" y="1580" width="80" height="30" as="geometry" />
        </mxCell>
        <mxCell id="eG-tpsc7ZjEbIQ_qfpCt-147" value="" style="edgeStyle=orthogonalEdgeStyle;orthogonalLoop=1;jettySize=auto;html=1;fontColor=#FFFFFF;fontSize=12;fillColor=#000000;" parent="eG-tpsc7ZjEbIQ_qfpCt-146" edge="1">
          <mxGeometry relative="1" as="geometry">
            <mxPoint as="sourcePoint" />
            <mxPoint x="80" as="targetPoint" />
          </mxGeometry>
        </mxCell>
        <mxCell id="eG-tpsc7ZjEbIQ_qfpCt-148" value="&lt;font color=&quot;#000000&quot; style=&quot;font-size: 10px&quot;&gt;初始引用&lt;/font&gt;" style="text;html=1;strokeColor=none;fillColor=none;align=center;verticalAlign=middle;whiteSpace=wrap;rounded=0;fontColor=#FFFFFF;" parent="eG-tpsc7ZjEbIQ_qfpCt-146" vertex="1">
          <mxGeometry x="10" y="10" width="60" height="20" as="geometry" />
        </mxCell>
        <mxCell id="m-YmG2BJVFd-W4NlR4my-1" value="&lt;font style=&quot;font-size: 20px&quot;&gt;对象消失&lt;/font&gt;" style="text;html=1;align=center;verticalAlign=middle;resizable=0;points=[];autosize=1;strokeColor=none;fillColor=none;" vertex="1" parent="1">
          <mxGeometry x="190" y="40" width="100" height="20" as="geometry" />
        </mxCell>
        <mxCell id="m-YmG2BJVFd-W4NlR4my-2" value="&lt;font style=&quot;font-size: 20px&quot;&gt;浮动垃圾&lt;/font&gt;" style="text;html=1;align=center;verticalAlign=middle;resizable=0;points=[];autosize=1;strokeColor=none;fillColor=none;" vertex="1" parent="1">
          <mxGeometry x="190" y="1720" width="100" height="20" as="geometry" />
        </mxCell>
        <mxCell id="m-YmG2BJVFd-W4NlR4my-3" value="" style="edgeStyle=orthogonalEdgeStyle;rounded=0;orthogonalLoop=1;jettySize=auto;html=1;" edge="1" parent="1" source="m-YmG2BJVFd-W4NlR4my-4" target="m-YmG2BJVFd-W4NlR4my-6">
          <mxGeometry relative="1" as="geometry" />
        </mxCell>
        <mxCell id="m-YmG2BJVFd-W4NlR4my-4" value="&lt;font color=&quot;#ffffff&quot;&gt;GC Root&lt;/font&gt;" style="whiteSpace=wrap;html=1;aspect=fixed;fillColor=#000000;" vertex="1" parent="1">
          <mxGeometry x="40" y="1880" width="40" height="40" as="geometry" />
        </mxCell>
        <mxCell id="m-YmG2BJVFd-W4NlR4my-5" value="" style="edgeStyle=orthogonalEdgeStyle;rounded=0;orthogonalLoop=1;jettySize=auto;html=1;fontColor=#000000;" edge="1" parent="1" source="m-YmG2BJVFd-W4NlR4my-6" target="m-YmG2BJVFd-W4NlR4my-9">
          <mxGeometry relative="1" as="geometry" />
        </mxCell>
        <mxCell id="m-YmG2BJVFd-W4NlR4my-6" value="&lt;font&gt;A&lt;/font&gt;" style="ellipse;whiteSpace=wrap;html=1;aspect=fixed;fontColor=#000000;" vertex="1" parent="1">
          <mxGeometry x="120" y="1880" width="40" height="40" as="geometry" />
        </mxCell>
        <mxCell id="m-YmG2BJVFd-W4NlR4my-7" value="" style="edgeStyle=orthogonalEdgeStyle;rounded=0;orthogonalLoop=1;jettySize=auto;html=1;fontColor=#000000;" edge="1" parent="1" source="m-YmG2BJVFd-W4NlR4my-9" target="m-YmG2BJVFd-W4NlR4my-11">
          <mxGeometry relative="1" as="geometry" />
        </mxCell>
        <mxCell id="m-YmG2BJVFd-W4NlR4my-8" style="rounded=0;orthogonalLoop=1;jettySize=auto;html=1;entryX=1;entryY=0;entryDx=0;entryDy=0;fontColor=#000000;" edge="1" parent="1" source="m-YmG2BJVFd-W4NlR4my-9" target="m-YmG2BJVFd-W4NlR4my-19">
          <mxGeometry relative="1" as="geometry" />
        </mxCell>
        <mxCell id="m-YmG2BJVFd-W4NlR4my-9" value="&lt;font&gt;B&lt;/font&gt;" style="ellipse;whiteSpace=wrap;html=1;aspect=fixed;fontColor=#000000;" vertex="1" parent="1">
          <mxGeometry x="200" y="1880" width="40" height="40" as="geometry" />
        </mxCell>
        <mxCell id="m-YmG2BJVFd-W4NlR4my-10" value="" style="edgeStyle=orthogonalEdgeStyle;rounded=0;orthogonalLoop=1;jettySize=auto;html=1;fontColor=#000000;" edge="1" parent="1" source="m-YmG2BJVFd-W4NlR4my-11" target="m-YmG2BJVFd-W4NlR4my-14">
          <mxGeometry relative="1" as="geometry" />
        </mxCell>
        <mxCell id="m-YmG2BJVFd-W4NlR4my-11" value="&lt;font&gt;C&lt;/font&gt;" style="ellipse;whiteSpace=wrap;html=1;aspect=fixed;fontColor=#000000;" vertex="1" parent="1">
          <mxGeometry x="280" y="1880" width="40" height="40" as="geometry" />
        </mxCell>
        <mxCell id="m-YmG2BJVFd-W4NlR4my-12" value="" style="edgeStyle=orthogonalEdgeStyle;rounded=0;orthogonalLoop=1;jettySize=auto;html=1;fontColor=#000000;" edge="1" parent="1" source="m-YmG2BJVFd-W4NlR4my-14" target="m-YmG2BJVFd-W4NlR4my-15">
          <mxGeometry relative="1" as="geometry" />
        </mxCell>
        <mxCell id="m-YmG2BJVFd-W4NlR4my-13" value="" style="edgeStyle=orthogonalEdgeStyle;rounded=0;orthogonalLoop=1;jettySize=auto;html=1;fontColor=#000000;" edge="1" parent="1" source="m-YmG2BJVFd-W4NlR4my-14" target="m-YmG2BJVFd-W4NlR4my-17">
          <mxGeometry relative="1" as="geometry" />
        </mxCell>
        <mxCell id="m-YmG2BJVFd-W4NlR4my-14" value="&lt;font&gt;D&lt;/font&gt;" style="ellipse;whiteSpace=wrap;html=1;aspect=fixed;fontColor=#000000;" vertex="1" parent="1">
          <mxGeometry x="360" y="1880" width="40" height="40" as="geometry" />
        </mxCell>
        <mxCell id="m-YmG2BJVFd-W4NlR4my-15" value="&lt;font&gt;E&lt;/font&gt;" style="ellipse;whiteSpace=wrap;html=1;aspect=fixed;fontColor=#000000;" vertex="1" parent="1">
          <mxGeometry x="360" y="1800" width="40" height="40" as="geometry" />
        </mxCell>
        <mxCell id="m-YmG2BJVFd-W4NlR4my-16" value="" style="edgeStyle=orthogonalEdgeStyle;rounded=0;orthogonalLoop=1;jettySize=auto;html=1;fontColor=#000000;" edge="1" parent="1" source="m-YmG2BJVFd-W4NlR4my-17" target="m-YmG2BJVFd-W4NlR4my-18">
          <mxGeometry relative="1" as="geometry" />
        </mxCell>
        <mxCell id="m-YmG2BJVFd-W4NlR4my-17" value="&lt;font&gt;F&lt;/font&gt;" style="ellipse;whiteSpace=wrap;html=1;aspect=fixed;fontColor=#000000;" vertex="1" parent="1">
          <mxGeometry x="360" y="1960" width="40" height="40" as="geometry" />
        </mxCell>
        <mxCell id="m-YmG2BJVFd-W4NlR4my-18" value="&lt;font&gt;G&lt;/font&gt;" style="ellipse;whiteSpace=wrap;html=1;aspect=fixed;fontColor=#000000;" vertex="1" parent="1">
          <mxGeometry x="280" y="1960" width="40" height="40" as="geometry" />
        </mxCell>
        <mxCell id="m-YmG2BJVFd-W4NlR4my-19" value="&lt;font&gt;K&lt;/font&gt;" style="ellipse;whiteSpace=wrap;html=1;aspect=fixed;fontColor=#000000;" vertex="1" parent="1">
          <mxGeometry x="120" y="1960" width="40" height="40" as="geometry" />
        </mxCell>
        <mxCell id="m-YmG2BJVFd-W4NlR4my-20" value="" style="edgeStyle=none;rounded=0;orthogonalLoop=1;jettySize=auto;html=1;fontColor=#000000;" edge="1" parent="1" source="m-YmG2BJVFd-W4NlR4my-21" target="m-YmG2BJVFd-W4NlR4my-11">
          <mxGeometry relative="1" as="geometry" />
        </mxCell>
        <mxCell id="m-YmG2BJVFd-W4NlR4my-21" value="H" style="ellipse;whiteSpace=wrap;html=1;aspect=fixed;fontColor=#000000;" vertex="1" parent="1">
          <mxGeometry x="280" y="1800" width="40" height="40" as="geometry" />
        </mxCell>
        <mxCell id="m-YmG2BJVFd-W4NlR4my-22" value="" style="edgeStyle=none;rounded=0;orthogonalLoop=1;jettySize=auto;html=1;fontColor=#000000;" edge="1" parent="1" source="m-YmG2BJVFd-W4NlR4my-24" target="m-YmG2BJVFd-W4NlR4my-25">
          <mxGeometry relative="1" as="geometry" />
        </mxCell>
        <mxCell id="m-YmG2BJVFd-W4NlR4my-23" value="" style="edgeStyle=none;rounded=0;orthogonalLoop=1;jettySize=auto;html=1;fontColor=#000000;" edge="1" parent="1" source="m-YmG2BJVFd-W4NlR4my-24" target="m-YmG2BJVFd-W4NlR4my-21">
          <mxGeometry relative="1" as="geometry" />
        </mxCell>
        <mxCell id="m-YmG2BJVFd-W4NlR4my-24" value="I" style="ellipse;whiteSpace=wrap;html=1;aspect=fixed;fontColor=#000000;" vertex="1" parent="1">
          <mxGeometry x="200" y="1800" width="40" height="40" as="geometry" />
        </mxCell>
        <mxCell id="m-YmG2BJVFd-W4NlR4my-25" value="J" style="ellipse;whiteSpace=wrap;html=1;aspect=fixed;fontColor=#000000;" vertex="1" parent="1">
          <mxGeometry x="120" y="1800" width="40" height="40" as="geometry" />
        </mxCell>
        <mxCell id="m-YmG2BJVFd-W4NlR4my-26" value="" style="edgeStyle=orthogonalEdgeStyle;rounded=0;orthogonalLoop=1;jettySize=auto;html=1;" edge="1" parent="1" source="m-YmG2BJVFd-W4NlR4my-27" target="m-YmG2BJVFd-W4NlR4my-29">
          <mxGeometry relative="1" as="geometry" />
        </mxCell>
        <mxCell id="m-YmG2BJVFd-W4NlR4my-27" value="&lt;font color=&quot;#ffffff&quot;&gt;GC Root&lt;/font&gt;" style="whiteSpace=wrap;html=1;aspect=fixed;fillColor=#000000;" vertex="1" parent="1">
          <mxGeometry x="40" y="2160" width="40" height="40" as="geometry" />
        </mxCell>
        <mxCell id="m-YmG2BJVFd-W4NlR4my-28" value="" style="edgeStyle=orthogonalEdgeStyle;orthogonalLoop=1;jettySize=auto;html=1;fontColor=#FFFFFF;fontSize=12;fillColor=#000000;" edge="1" parent="1" source="m-YmG2BJVFd-W4NlR4my-29" target="m-YmG2BJVFd-W4NlR4my-32">
          <mxGeometry relative="1" as="geometry" />
        </mxCell>
        <mxCell id="m-YmG2BJVFd-W4NlR4my-29" value="&lt;font&gt;A&lt;/font&gt;" style="ellipse;whiteSpace=wrap;html=1;aspect=fixed;fontColor=#FFFFFF;fillColor=#000000;" vertex="1" parent="1">
          <mxGeometry x="120" y="2160" width="40" height="40" as="geometry" />
        </mxCell>
        <mxCell id="m-YmG2BJVFd-W4NlR4my-30" value="" style="edgeStyle=orthogonalEdgeStyle;rounded=0;orthogonalLoop=1;jettySize=auto;html=1;fontColor=#000000;" edge="1" parent="1" source="m-YmG2BJVFd-W4NlR4my-32" target="m-YmG2BJVFd-W4NlR4my-34">
          <mxGeometry relative="1" as="geometry" />
        </mxCell>
        <mxCell id="m-YmG2BJVFd-W4NlR4my-31" style="rounded=0;orthogonalLoop=1;jettySize=auto;html=1;entryX=1;entryY=0;entryDx=0;entryDy=0;fontColor=#000000;" edge="1" parent="1" source="m-YmG2BJVFd-W4NlR4my-32" target="m-YmG2BJVFd-W4NlR4my-42">
          <mxGeometry relative="1" as="geometry" />
        </mxCell>
        <mxCell id="m-YmG2BJVFd-W4NlR4my-32" value="&lt;font&gt;B&lt;/font&gt;" style="ellipse;whiteSpace=wrap;html=1;aspect=fixed;fontColor=#FFFFFF;fillColor=#000000;" vertex="1" parent="1">
          <mxGeometry x="200" y="2160" width="40" height="40" as="geometry" />
        </mxCell>
        <mxCell id="m-YmG2BJVFd-W4NlR4my-33" value="" style="edgeStyle=orthogonalEdgeStyle;rounded=0;orthogonalLoop=1;jettySize=auto;html=1;fontColor=#000000;" edge="1" parent="1" source="m-YmG2BJVFd-W4NlR4my-34" target="m-YmG2BJVFd-W4NlR4my-37">
          <mxGeometry relative="1" as="geometry" />
        </mxCell>
        <mxCell id="m-YmG2BJVFd-W4NlR4my-34" value="&lt;font&gt;C&lt;/font&gt;" style="ellipse;whiteSpace=wrap;html=1;aspect=fixed;fontColor=#FFFFFF;strokeColor=#000000;fillColor=#000000;" vertex="1" parent="1">
          <mxGeometry x="280" y="2160" width="40" height="40" as="geometry" />
        </mxCell>
        <mxCell id="m-YmG2BJVFd-W4NlR4my-35" value="" style="edgeStyle=orthogonalEdgeStyle;rounded=0;orthogonalLoop=1;jettySize=auto;html=1;fontColor=#000000;" edge="1" parent="1" source="m-YmG2BJVFd-W4NlR4my-37" target="m-YmG2BJVFd-W4NlR4my-38">
          <mxGeometry relative="1" as="geometry" />
        </mxCell>
        <mxCell id="m-YmG2BJVFd-W4NlR4my-36" value="" style="edgeStyle=orthogonalEdgeStyle;rounded=0;orthogonalLoop=1;jettySize=auto;html=1;fontColor=#000000;" edge="1" parent="1" source="m-YmG2BJVFd-W4NlR4my-37" target="m-YmG2BJVFd-W4NlR4my-40">
          <mxGeometry relative="1" as="geometry" />
        </mxCell>
        <mxCell id="m-YmG2BJVFd-W4NlR4my-37" value="&lt;font&gt;D&lt;/font&gt;" style="ellipse;whiteSpace=wrap;html=1;aspect=fixed;fontColor=#333333;strokeColor=#666666;fillColor=#DBDBDB;" vertex="1" parent="1">
          <mxGeometry x="360" y="2160" width="40" height="40" as="geometry" />
        </mxCell>
        <mxCell id="m-YmG2BJVFd-W4NlR4my-38" value="&lt;font&gt;E&lt;/font&gt;" style="ellipse;whiteSpace=wrap;html=1;aspect=fixed;fontColor=#000000;" vertex="1" parent="1">
          <mxGeometry x="360" y="2080" width="40" height="40" as="geometry" />
        </mxCell>
        <mxCell id="m-YmG2BJVFd-W4NlR4my-39" value="" style="edgeStyle=orthogonalEdgeStyle;rounded=0;orthogonalLoop=1;jettySize=auto;html=1;fontColor=#000000;" edge="1" parent="1" source="m-YmG2BJVFd-W4NlR4my-40" target="m-YmG2BJVFd-W4NlR4my-41">
          <mxGeometry relative="1" as="geometry" />
        </mxCell>
        <mxCell id="m-YmG2BJVFd-W4NlR4my-40" value="&lt;font&gt;F&lt;/font&gt;" style="ellipse;whiteSpace=wrap;html=1;aspect=fixed;fontColor=#000000;" vertex="1" parent="1">
          <mxGeometry x="360" y="2240" width="40" height="40" as="geometry" />
        </mxCell>
        <mxCell id="m-YmG2BJVFd-W4NlR4my-41" value="&lt;font&gt;G&lt;/font&gt;" style="ellipse;whiteSpace=wrap;html=1;aspect=fixed;fontColor=#000000;" vertex="1" parent="1">
          <mxGeometry x="280" y="2240" width="40" height="40" as="geometry" />
        </mxCell>
        <mxCell id="m-YmG2BJVFd-W4NlR4my-42" value="&lt;font&gt;K&lt;/font&gt;" style="ellipse;whiteSpace=wrap;html=1;aspect=fixed;fontColor=#FFFFFF;strokeColor=#000000;fillColor=#000000;" vertex="1" parent="1">
          <mxGeometry x="120" y="2240" width="40" height="40" as="geometry" />
        </mxCell>
        <mxCell id="m-YmG2BJVFd-W4NlR4my-43" value="" style="edgeStyle=none;rounded=0;orthogonalLoop=1;jettySize=auto;html=1;fontColor=#000000;" edge="1" parent="1" source="m-YmG2BJVFd-W4NlR4my-44" target="m-YmG2BJVFd-W4NlR4my-34">
          <mxGeometry relative="1" as="geometry" />
        </mxCell>
        <mxCell id="m-YmG2BJVFd-W4NlR4my-44" value="H" style="ellipse;whiteSpace=wrap;html=1;aspect=fixed;fontColor=#000000;" vertex="1" parent="1">
          <mxGeometry x="280" y="2080" width="40" height="40" as="geometry" />
        </mxCell>
        <mxCell id="m-YmG2BJVFd-W4NlR4my-45" value="" style="edgeStyle=none;rounded=0;orthogonalLoop=1;jettySize=auto;html=1;fontColor=#000000;" edge="1" parent="1" source="m-YmG2BJVFd-W4NlR4my-47" target="m-YmG2BJVFd-W4NlR4my-48">
          <mxGeometry relative="1" as="geometry" />
        </mxCell>
        <mxCell id="m-YmG2BJVFd-W4NlR4my-46" value="" style="edgeStyle=none;rounded=0;orthogonalLoop=1;jettySize=auto;html=1;fontColor=#000000;" edge="1" parent="1" source="m-YmG2BJVFd-W4NlR4my-47" target="m-YmG2BJVFd-W4NlR4my-44">
          <mxGeometry relative="1" as="geometry" />
        </mxCell>
        <mxCell id="m-YmG2BJVFd-W4NlR4my-47" value="I" style="ellipse;whiteSpace=wrap;html=1;aspect=fixed;fontColor=#000000;" vertex="1" parent="1">
          <mxGeometry x="200" y="2080" width="40" height="40" as="geometry" />
        </mxCell>
        <mxCell id="m-YmG2BJVFd-W4NlR4my-48" value="J" style="ellipse;whiteSpace=wrap;html=1;aspect=fixed;fontColor=#000000;" vertex="1" parent="1">
          <mxGeometry x="120" y="2080" width="40" height="40" as="geometry" />
        </mxCell>
        <mxCell id="m-YmG2BJVFd-W4NlR4my-49" value="" style="edgeStyle=orthogonalEdgeStyle;rounded=0;orthogonalLoop=1;jettySize=auto;html=1;" edge="1" parent="1" source="m-YmG2BJVFd-W4NlR4my-50" target="m-YmG2BJVFd-W4NlR4my-52">
          <mxGeometry relative="1" as="geometry" />
        </mxCell>
        <mxCell id="m-YmG2BJVFd-W4NlR4my-50" value="&lt;font color=&quot;#ffffff&quot;&gt;GC Root&lt;/font&gt;" style="whiteSpace=wrap;html=1;aspect=fixed;fillColor=#000000;" vertex="1" parent="1">
          <mxGeometry x="40" y="2440" width="40" height="40" as="geometry" />
        </mxCell>
        <mxCell id="m-YmG2BJVFd-W4NlR4my-51" value="" style="edgeStyle=orthogonalEdgeStyle;orthogonalLoop=1;jettySize=auto;html=1;fontColor=#FFFFFF;fontSize=12;fillColor=#000000;" edge="1" parent="1" source="m-YmG2BJVFd-W4NlR4my-52" target="m-YmG2BJVFd-W4NlR4my-55">
          <mxGeometry relative="1" as="geometry" />
        </mxCell>
        <mxCell id="m-YmG2BJVFd-W4NlR4my-52" value="&lt;font&gt;A&lt;/font&gt;" style="ellipse;whiteSpace=wrap;html=1;aspect=fixed;fontColor=#FFFFFF;fillColor=#000000;" vertex="1" parent="1">
          <mxGeometry x="120" y="2440" width="40" height="40" as="geometry" />
        </mxCell>
        <mxCell id="m-YmG2BJVFd-W4NlR4my-53" value="" style="edgeStyle=orthogonalEdgeStyle;rounded=0;orthogonalLoop=1;jettySize=auto;html=1;fontColor=#000000;" edge="1" parent="1" source="m-YmG2BJVFd-W4NlR4my-55" target="m-YmG2BJVFd-W4NlR4my-57">
          <mxGeometry relative="1" as="geometry" />
        </mxCell>
        <mxCell id="m-YmG2BJVFd-W4NlR4my-54" style="rounded=0;orthogonalLoop=1;jettySize=auto;html=1;entryX=1;entryY=0;entryDx=0;entryDy=0;fontColor=#000000;" edge="1" parent="1" source="m-YmG2BJVFd-W4NlR4my-55" target="m-YmG2BJVFd-W4NlR4my-65">
          <mxGeometry relative="1" as="geometry" />
        </mxCell>
        <mxCell id="m-YmG2BJVFd-W4NlR4my-55" value="&lt;font&gt;B&lt;/font&gt;" style="ellipse;whiteSpace=wrap;html=1;aspect=fixed;fontColor=#FFFFFF;fillColor=#000000;" vertex="1" parent="1">
          <mxGeometry x="200" y="2440" width="40" height="40" as="geometry" />
        </mxCell>
        <mxCell id="m-YmG2BJVFd-W4NlR4my-56" value="" style="edgeStyle=orthogonalEdgeStyle;rounded=0;orthogonalLoop=1;jettySize=auto;html=1;fontColor=#000000;" edge="1" parent="1" source="m-YmG2BJVFd-W4NlR4my-57" target="m-YmG2BJVFd-W4NlR4my-60">
          <mxGeometry relative="1" as="geometry" />
        </mxCell>
        <mxCell id="m-YmG2BJVFd-W4NlR4my-57" value="&lt;font&gt;C&lt;/font&gt;" style="ellipse;whiteSpace=wrap;html=1;aspect=fixed;fontColor=#FFFFFF;strokeColor=#000000;fillColor=#000000;" vertex="1" parent="1">
          <mxGeometry x="280" y="2440" width="40" height="40" as="geometry" />
        </mxCell>
        <mxCell id="m-YmG2BJVFd-W4NlR4my-58" value="" style="edgeStyle=orthogonalEdgeStyle;orthogonalLoop=1;jettySize=auto;html=1;fontColor=#FFFFFF;fontSize=12;fillColor=#000000;" edge="1" parent="1" source="m-YmG2BJVFd-W4NlR4my-60" target="m-YmG2BJVFd-W4NlR4my-61">
          <mxGeometry relative="1" as="geometry" />
        </mxCell>
        <mxCell id="m-YmG2BJVFd-W4NlR4my-59" value="" style="edgeStyle=orthogonalEdgeStyle;orthogonalLoop=1;jettySize=auto;html=1;fontColor=#FFFFFF;fontSize=12;fillColor=#000000;" edge="1" parent="1" source="m-YmG2BJVFd-W4NlR4my-60" target="m-YmG2BJVFd-W4NlR4my-63">
          <mxGeometry relative="1" as="geometry" />
        </mxCell>
        <mxCell id="m-YmG2BJVFd-W4NlR4my-60" value="&lt;font&gt;D&lt;/font&gt;" style="ellipse;whiteSpace=wrap;html=1;aspect=fixed;fontColor=#FFFFFF;fillColor=#000000;" vertex="1" parent="1">
          <mxGeometry x="360" y="2440" width="40" height="40" as="geometry" />
        </mxCell>
        <mxCell id="m-YmG2BJVFd-W4NlR4my-61" value="&lt;font&gt;E&lt;/font&gt;" style="ellipse;whiteSpace=wrap;html=1;aspect=fixed;fontColor=#FFFFFF;fillColor=#000000;" vertex="1" parent="1">
          <mxGeometry x="360" y="2360" width="40" height="40" as="geometry" />
        </mxCell>
        <mxCell id="m-YmG2BJVFd-W4NlR4my-62" value="" style="edgeStyle=orthogonalEdgeStyle;rounded=0;orthogonalLoop=1;jettySize=auto;html=1;fontColor=#000000;" edge="1" parent="1" source="m-YmG2BJVFd-W4NlR4my-63" target="m-YmG2BJVFd-W4NlR4my-64">
          <mxGeometry relative="1" as="geometry" />
        </mxCell>
        <mxCell id="m-YmG2BJVFd-W4NlR4my-63" value="&lt;font&gt;F&lt;/font&gt;" style="ellipse;whiteSpace=wrap;html=1;aspect=fixed;fontColor=#FFFFFF;fillColor=#000000;" vertex="1" parent="1">
          <mxGeometry x="360" y="2520" width="40" height="40" as="geometry" />
        </mxCell>
        <mxCell id="m-YmG2BJVFd-W4NlR4my-64" value="&lt;font&gt;G&lt;/font&gt;" style="ellipse;whiteSpace=wrap;html=1;aspect=fixed;fontColor=#FFFFFF;fillColor=#000000;" vertex="1" parent="1">
          <mxGeometry x="280" y="2520" width="40" height="40" as="geometry" />
        </mxCell>
        <mxCell id="m-YmG2BJVFd-W4NlR4my-65" value="&lt;font&gt;K&lt;/font&gt;" style="ellipse;whiteSpace=wrap;html=1;aspect=fixed;fontColor=#FFFFFF;strokeColor=#000000;fillColor=#000000;" vertex="1" parent="1">
          <mxGeometry x="120" y="2520" width="40" height="40" as="geometry" />
        </mxCell>
        <mxCell id="m-YmG2BJVFd-W4NlR4my-66" value="" style="edgeStyle=none;rounded=0;orthogonalLoop=1;jettySize=auto;html=1;fontColor=#000000;" edge="1" parent="1" source="m-YmG2BJVFd-W4NlR4my-67" target="m-YmG2BJVFd-W4NlR4my-57">
          <mxGeometry relative="1" as="geometry" />
        </mxCell>
        <mxCell id="m-YmG2BJVFd-W4NlR4my-67" value="H" style="ellipse;whiteSpace=wrap;html=1;aspect=fixed;fontColor=#000000;" vertex="1" parent="1">
          <mxGeometry x="280" y="2360" width="40" height="40" as="geometry" />
        </mxCell>
        <mxCell id="m-YmG2BJVFd-W4NlR4my-68" value="" style="edgeStyle=none;rounded=0;orthogonalLoop=1;jettySize=auto;html=1;fontColor=#000000;" edge="1" parent="1" source="m-YmG2BJVFd-W4NlR4my-70" target="m-YmG2BJVFd-W4NlR4my-71">
          <mxGeometry relative="1" as="geometry" />
        </mxCell>
        <mxCell id="m-YmG2BJVFd-W4NlR4my-69" value="" style="edgeStyle=none;rounded=0;orthogonalLoop=1;jettySize=auto;html=1;fontColor=#000000;" edge="1" parent="1" source="m-YmG2BJVFd-W4NlR4my-70" target="m-YmG2BJVFd-W4NlR4my-67">
          <mxGeometry relative="1" as="geometry" />
        </mxCell>
        <mxCell id="m-YmG2BJVFd-W4NlR4my-70" value="I" style="ellipse;whiteSpace=wrap;html=1;aspect=fixed;fontColor=#000000;" vertex="1" parent="1">
          <mxGeometry x="200" y="2360" width="40" height="40" as="geometry" />
        </mxCell>
        <mxCell id="m-YmG2BJVFd-W4NlR4my-71" value="J" style="ellipse;whiteSpace=wrap;html=1;aspect=fixed;fontColor=#000000;" vertex="1" parent="1">
          <mxGeometry x="120" y="2360" width="40" height="40" as="geometry" />
        </mxCell>
        <mxCell id="m-YmG2BJVFd-W4NlR4my-72" value="" style="edgeStyle=orthogonalEdgeStyle;rounded=0;orthogonalLoop=1;jettySize=auto;html=1;" edge="1" parent="1" source="m-YmG2BJVFd-W4NlR4my-73" target="m-YmG2BJVFd-W4NlR4my-75">
          <mxGeometry relative="1" as="geometry" />
        </mxCell>
        <mxCell id="m-YmG2BJVFd-W4NlR4my-73" value="&lt;font color=&quot;#ffffff&quot;&gt;GC Root&lt;/font&gt;" style="whiteSpace=wrap;html=1;aspect=fixed;fillColor=#000000;" vertex="1" parent="1">
          <mxGeometry x="40" y="2720" width="40" height="40" as="geometry" />
        </mxCell>
        <mxCell id="m-YmG2BJVFd-W4NlR4my-74" value="" style="edgeStyle=orthogonalEdgeStyle;orthogonalLoop=1;jettySize=auto;html=1;fontColor=#FFFFFF;fontSize=12;fillColor=#000000;" edge="1" parent="1" source="m-YmG2BJVFd-W4NlR4my-75" target="m-YmG2BJVFd-W4NlR4my-78">
          <mxGeometry relative="1" as="geometry" />
        </mxCell>
        <mxCell id="m-YmG2BJVFd-W4NlR4my-75" value="&lt;font&gt;A&lt;/font&gt;" style="ellipse;whiteSpace=wrap;html=1;aspect=fixed;fontColor=#FFFFFF;fillColor=#000000;" vertex="1" parent="1">
          <mxGeometry x="120" y="2720" width="40" height="40" as="geometry" />
        </mxCell>
        <mxCell id="m-YmG2BJVFd-W4NlR4my-76" value="" style="edgeStyle=orthogonalEdgeStyle;rounded=0;orthogonalLoop=1;jettySize=auto;html=1;fontColor=#000000;" edge="1" parent="1" source="m-YmG2BJVFd-W4NlR4my-78" target="m-YmG2BJVFd-W4NlR4my-80">
          <mxGeometry relative="1" as="geometry" />
        </mxCell>
        <mxCell id="m-YmG2BJVFd-W4NlR4my-77" style="rounded=0;orthogonalLoop=1;jettySize=auto;html=1;entryX=1;entryY=0;entryDx=0;entryDy=0;fontColor=#000000;dashed=1;" edge="1" parent="1" source="m-YmG2BJVFd-W4NlR4my-78" target="m-YmG2BJVFd-W4NlR4my-88">
          <mxGeometry relative="1" as="geometry" />
        </mxCell>
        <mxCell id="m-YmG2BJVFd-W4NlR4my-78" value="&lt;font&gt;B&lt;/font&gt;" style="ellipse;whiteSpace=wrap;html=1;aspect=fixed;fontColor=#FFFFFF;fillColor=#000000;" vertex="1" parent="1">
          <mxGeometry x="200" y="2720" width="40" height="40" as="geometry" />
        </mxCell>
        <mxCell id="m-YmG2BJVFd-W4NlR4my-79" value="" style="edgeStyle=orthogonalEdgeStyle;rounded=0;orthogonalLoop=1;jettySize=auto;html=1;fontColor=#000000;" edge="1" parent="1" source="m-YmG2BJVFd-W4NlR4my-80" target="m-YmG2BJVFd-W4NlR4my-83">
          <mxGeometry relative="1" as="geometry" />
        </mxCell>
        <mxCell id="m-YmG2BJVFd-W4NlR4my-80" value="&lt;font&gt;C&lt;/font&gt;" style="ellipse;whiteSpace=wrap;html=1;aspect=fixed;fontColor=#FFFFFF;strokeColor=#000000;fillColor=#000000;" vertex="1" parent="1">
          <mxGeometry x="280" y="2720" width="40" height="40" as="geometry" />
        </mxCell>
        <mxCell id="m-YmG2BJVFd-W4NlR4my-81" value="" style="edgeStyle=orthogonalEdgeStyle;rounded=0;orthogonalLoop=1;jettySize=auto;html=1;fontColor=#000000;" edge="1" parent="1" source="m-YmG2BJVFd-W4NlR4my-83" target="m-YmG2BJVFd-W4NlR4my-84">
          <mxGeometry relative="1" as="geometry" />
        </mxCell>
        <mxCell id="m-YmG2BJVFd-W4NlR4my-82" value="" style="edgeStyle=orthogonalEdgeStyle;rounded=0;orthogonalLoop=1;jettySize=auto;html=1;fontColor=#000000;" edge="1" parent="1" source="m-YmG2BJVFd-W4NlR4my-83" target="m-YmG2BJVFd-W4NlR4my-86">
          <mxGeometry relative="1" as="geometry" />
        </mxCell>
        <mxCell id="m-YmG2BJVFd-W4NlR4my-83" value="&lt;font&gt;D&lt;/font&gt;" style="ellipse;whiteSpace=wrap;html=1;aspect=fixed;fontColor=#333333;strokeColor=#666666;fillColor=#DBDBDB;" vertex="1" parent="1">
          <mxGeometry x="360" y="2720" width="40" height="40" as="geometry" />
        </mxCell>
        <mxCell id="m-YmG2BJVFd-W4NlR4my-84" value="&lt;font&gt;E&lt;/font&gt;" style="ellipse;whiteSpace=wrap;html=1;aspect=fixed;fontColor=#000000;" vertex="1" parent="1">
          <mxGeometry x="360" y="2640" width="40" height="40" as="geometry" />
        </mxCell>
        <mxCell id="m-YmG2BJVFd-W4NlR4my-85" value="" style="edgeStyle=orthogonalEdgeStyle;rounded=0;orthogonalLoop=1;jettySize=auto;html=1;fontColor=#000000;" edge="1" parent="1" source="m-YmG2BJVFd-W4NlR4my-86" target="m-YmG2BJVFd-W4NlR4my-87">
          <mxGeometry relative="1" as="geometry" />
        </mxCell>
        <mxCell id="m-YmG2BJVFd-W4NlR4my-86" value="&lt;font&gt;F&lt;/font&gt;" style="ellipse;whiteSpace=wrap;html=1;aspect=fixed;fontColor=#000000;" vertex="1" parent="1">
          <mxGeometry x="360" y="2800" width="40" height="40" as="geometry" />
        </mxCell>
        <mxCell id="m-YmG2BJVFd-W4NlR4my-87" value="&lt;font&gt;G&lt;/font&gt;" style="ellipse;whiteSpace=wrap;html=1;aspect=fixed;fontColor=#000000;" vertex="1" parent="1">
          <mxGeometry x="280" y="2800" width="40" height="40" as="geometry" />
        </mxCell>
        <mxCell id="m-YmG2BJVFd-W4NlR4my-88" value="&lt;font&gt;K&lt;/font&gt;" style="ellipse;whiteSpace=wrap;html=1;aspect=fixed;fontColor=#FFFFFF;strokeColor=#000000;fillColor=#000000;" vertex="1" parent="1">
          <mxGeometry x="120" y="2800" width="40" height="40" as="geometry" />
        </mxCell>
        <mxCell id="m-YmG2BJVFd-W4NlR4my-89" value="" style="edgeStyle=none;rounded=0;orthogonalLoop=1;jettySize=auto;html=1;fontColor=#000000;" edge="1" parent="1" source="m-YmG2BJVFd-W4NlR4my-90" target="m-YmG2BJVFd-W4NlR4my-80">
          <mxGeometry relative="1" as="geometry" />
        </mxCell>
        <mxCell id="m-YmG2BJVFd-W4NlR4my-90" value="H" style="ellipse;whiteSpace=wrap;html=1;aspect=fixed;fontColor=#000000;" vertex="1" parent="1">
          <mxGeometry x="280" y="2640" width="40" height="40" as="geometry" />
        </mxCell>
        <mxCell id="m-YmG2BJVFd-W4NlR4my-91" value="" style="edgeStyle=none;rounded=0;orthogonalLoop=1;jettySize=auto;html=1;fontColor=#000000;" edge="1" parent="1" source="m-YmG2BJVFd-W4NlR4my-93" target="m-YmG2BJVFd-W4NlR4my-94">
          <mxGeometry relative="1" as="geometry" />
        </mxCell>
        <mxCell id="m-YmG2BJVFd-W4NlR4my-92" value="" style="edgeStyle=none;rounded=0;orthogonalLoop=1;jettySize=auto;html=1;fontColor=#000000;" edge="1" parent="1" source="m-YmG2BJVFd-W4NlR4my-93" target="m-YmG2BJVFd-W4NlR4my-90">
          <mxGeometry relative="1" as="geometry" />
        </mxCell>
        <mxCell id="m-YmG2BJVFd-W4NlR4my-93" value="I" style="ellipse;whiteSpace=wrap;html=1;aspect=fixed;fontColor=#000000;" vertex="1" parent="1">
          <mxGeometry x="200" y="2640" width="40" height="40" as="geometry" />
        </mxCell>
        <mxCell id="m-YmG2BJVFd-W4NlR4my-94" value="J" style="ellipse;whiteSpace=wrap;html=1;aspect=fixed;fontColor=#000000;" vertex="1" parent="1">
          <mxGeometry x="120" y="2640" width="40" height="40" as="geometry" />
        </mxCell>
        <mxCell id="m-YmG2BJVFd-W4NlR4my-95" value="" style="group" vertex="1" connectable="0" parent="1">
          <mxGeometry x="80" y="2900" width="80" height="30" as="geometry" />
        </mxCell>
        <mxCell id="m-YmG2BJVFd-W4NlR4my-96" value="" style="edgeStyle=none;rounded=0;orthogonalLoop=1;jettySize=auto;html=1;fontColor=#FFFFFF;shape=flexArrow;width=4;endSize=3.186666666666667;endWidth=7;" edge="1" parent="m-YmG2BJVFd-W4NlR4my-95">
          <mxGeometry relative="1" as="geometry">
            <mxPoint as="sourcePoint" />
            <mxPoint x="80" as="targetPoint" />
          </mxGeometry>
        </mxCell>
        <mxCell id="m-YmG2BJVFd-W4NlR4my-97" value="&lt;font color=&quot;#000000&quot; style=&quot;font-size: 10px&quot;&gt;新增引用&lt;/font&gt;" style="text;html=1;strokeColor=none;fillColor=none;align=center;verticalAlign=middle;whiteSpace=wrap;rounded=0;fontColor=#FFFFFF;" vertex="1" parent="m-YmG2BJVFd-W4NlR4my-95">
          <mxGeometry x="10" y="10" width="60" height="20" as="geometry" />
        </mxCell>
        <mxCell id="m-YmG2BJVFd-W4NlR4my-98" value="" style="group" vertex="1" connectable="0" parent="1">
          <mxGeometry x="200" y="2900" width="80" height="30" as="geometry" />
        </mxCell>
        <mxCell id="m-YmG2BJVFd-W4NlR4my-99" style="rounded=0;orthogonalLoop=1;jettySize=auto;html=1;fontColor=#000000;dashed=1;" edge="1" parent="m-YmG2BJVFd-W4NlR4my-98">
          <mxGeometry relative="1" as="geometry">
            <mxPoint as="sourcePoint" />
            <mxPoint x="80" as="targetPoint" />
          </mxGeometry>
        </mxCell>
        <mxCell id="m-YmG2BJVFd-W4NlR4my-100" value="&lt;font color=&quot;#000000&quot; style=&quot;font-size: 10px&quot;&gt;删除引用&lt;/font&gt;" style="text;html=1;strokeColor=none;fillColor=none;align=center;verticalAlign=middle;whiteSpace=wrap;rounded=0;fontColor=#FFFFFF;" vertex="1" parent="m-YmG2BJVFd-W4NlR4my-98">
          <mxGeometry x="10" y="10" width="60" height="20" as="geometry" />
        </mxCell>
        <mxCell id="m-YmG2BJVFd-W4NlR4my-101" value="" style="group" vertex="1" connectable="0" parent="1">
          <mxGeometry x="320" y="2900" width="80" height="30" as="geometry" />
        </mxCell>
        <mxCell id="m-YmG2BJVFd-W4NlR4my-102" value="" style="edgeStyle=orthogonalEdgeStyle;orthogonalLoop=1;jettySize=auto;html=1;fontColor=#FFFFFF;fontSize=12;fillColor=#000000;" edge="1" parent="m-YmG2BJVFd-W4NlR4my-101">
          <mxGeometry relative="1" as="geometry">
            <mxPoint as="sourcePoint" />
            <mxPoint x="80" as="targetPoint" />
          </mxGeometry>
        </mxCell>
        <mxCell id="m-YmG2BJVFd-W4NlR4my-103" value="&lt;font color=&quot;#000000&quot; style=&quot;font-size: 10px&quot;&gt;初始引用&lt;/font&gt;" style="text;html=1;strokeColor=none;fillColor=none;align=center;verticalAlign=middle;whiteSpace=wrap;rounded=0;fontColor=#FFFFFF;" vertex="1" parent="m-YmG2BJVFd-W4NlR4my-101">
          <mxGeometry x="10" y="10" width="60" height="20" as="geometry" />
        </mxCell>
        <mxCell id="m-YmG2BJVFd-W4NlR4my-128" value="" style="edgeStyle=orthogonalEdgeStyle;rounded=0;orthogonalLoop=1;jettySize=auto;html=1;" edge="1" parent="1" source="m-YmG2BJVFd-W4NlR4my-129" target="m-YmG2BJVFd-W4NlR4my-131">
          <mxGeometry relative="1" as="geometry" />
        </mxCell>
        <mxCell id="m-YmG2BJVFd-W4NlR4my-129" value="&lt;font color=&quot;#ffffff&quot;&gt;GC Root&lt;/font&gt;" style="whiteSpace=wrap;html=1;aspect=fixed;fillColor=#000000;" vertex="1" parent="1">
          <mxGeometry x="40" y="3080" width="40" height="40" as="geometry" />
        </mxCell>
        <mxCell id="m-YmG2BJVFd-W4NlR4my-130" value="" style="edgeStyle=orthogonalEdgeStyle;orthogonalLoop=1;jettySize=auto;html=1;fontColor=#FFFFFF;fontSize=12;fillColor=#000000;" edge="1" parent="1" source="m-YmG2BJVFd-W4NlR4my-131" target="m-YmG2BJVFd-W4NlR4my-134">
          <mxGeometry relative="1" as="geometry" />
        </mxCell>
        <mxCell id="m-YmG2BJVFd-W4NlR4my-131" value="&lt;font&gt;A&lt;/font&gt;" style="ellipse;whiteSpace=wrap;html=1;aspect=fixed;fontColor=#FFFFFF;fillColor=#000000;" vertex="1" parent="1">
          <mxGeometry x="120" y="3080" width="40" height="40" as="geometry" />
        </mxCell>
        <mxCell id="m-YmG2BJVFd-W4NlR4my-132" value="" style="edgeStyle=orthogonalEdgeStyle;rounded=0;orthogonalLoop=1;jettySize=auto;html=1;fontColor=#000000;" edge="1" parent="1" source="m-YmG2BJVFd-W4NlR4my-134" target="m-YmG2BJVFd-W4NlR4my-136">
          <mxGeometry relative="1" as="geometry" />
        </mxCell>
        <mxCell id="m-YmG2BJVFd-W4NlR4my-133" style="rounded=0;orthogonalLoop=1;jettySize=auto;html=1;entryX=1;entryY=0;entryDx=0;entryDy=0;fontColor=#000000;dashed=1;" edge="1" parent="1" source="m-YmG2BJVFd-W4NlR4my-134" target="m-YmG2BJVFd-W4NlR4my-144">
          <mxGeometry relative="1" as="geometry" />
        </mxCell>
        <mxCell id="m-YmG2BJVFd-W4NlR4my-134" value="&lt;font&gt;B&lt;/font&gt;" style="ellipse;whiteSpace=wrap;html=1;aspect=fixed;fontColor=#FFFFFF;fillColor=#000000;" vertex="1" parent="1">
          <mxGeometry x="200" y="3080" width="40" height="40" as="geometry" />
        </mxCell>
        <mxCell id="m-YmG2BJVFd-W4NlR4my-135" value="" style="edgeStyle=orthogonalEdgeStyle;rounded=0;orthogonalLoop=1;jettySize=auto;html=1;fontColor=#000000;" edge="1" parent="1" source="m-YmG2BJVFd-W4NlR4my-136" target="m-YmG2BJVFd-W4NlR4my-139">
          <mxGeometry relative="1" as="geometry" />
        </mxCell>
        <mxCell id="m-YmG2BJVFd-W4NlR4my-136" value="&lt;font&gt;C&lt;/font&gt;" style="ellipse;whiteSpace=wrap;html=1;aspect=fixed;fontColor=#FFFFFF;strokeColor=#000000;fillColor=#000000;" vertex="1" parent="1">
          <mxGeometry x="280" y="3080" width="40" height="40" as="geometry" />
        </mxCell>
        <mxCell id="m-YmG2BJVFd-W4NlR4my-137" value="" style="edgeStyle=orthogonalEdgeStyle;orthogonalLoop=1;jettySize=auto;html=1;fontColor=#FFFFFF;fontSize=12;fillColor=#000000;" edge="1" parent="1" source="m-YmG2BJVFd-W4NlR4my-139" target="m-YmG2BJVFd-W4NlR4my-140">
          <mxGeometry relative="1" as="geometry" />
        </mxCell>
        <mxCell id="m-YmG2BJVFd-W4NlR4my-138" value="" style="edgeStyle=orthogonalEdgeStyle;orthogonalLoop=1;jettySize=auto;html=1;fontColor=#FFFFFF;fontSize=12;fillColor=#000000;" edge="1" parent="1" source="m-YmG2BJVFd-W4NlR4my-139" target="m-YmG2BJVFd-W4NlR4my-142">
          <mxGeometry relative="1" as="geometry" />
        </mxCell>
        <mxCell id="m-YmG2BJVFd-W4NlR4my-139" value="&lt;font&gt;D&lt;/font&gt;" style="ellipse;whiteSpace=wrap;html=1;aspect=fixed;fontColor=#FFFFFF;strokeColor=#000000;fillColor=#000000;" vertex="1" parent="1">
          <mxGeometry x="360" y="3080" width="40" height="40" as="geometry" />
        </mxCell>
        <mxCell id="m-YmG2BJVFd-W4NlR4my-140" value="&lt;font&gt;E&lt;/font&gt;" style="ellipse;whiteSpace=wrap;html=1;aspect=fixed;fontColor=#FFFFFF;fillColor=#000000;" vertex="1" parent="1">
          <mxGeometry x="360" y="3000" width="40" height="40" as="geometry" />
        </mxCell>
        <mxCell id="m-YmG2BJVFd-W4NlR4my-141" value="" style="edgeStyle=orthogonalEdgeStyle;rounded=0;orthogonalLoop=1;jettySize=auto;html=1;fontColor=#000000;" edge="1" parent="1" source="m-YmG2BJVFd-W4NlR4my-142" target="m-YmG2BJVFd-W4NlR4my-143">
          <mxGeometry relative="1" as="geometry" />
        </mxCell>
        <mxCell id="m-YmG2BJVFd-W4NlR4my-142" value="&lt;font&gt;F&lt;/font&gt;" style="ellipse;whiteSpace=wrap;html=1;aspect=fixed;fontColor=#FFFFFF;fillColor=#000000;" vertex="1" parent="1">
          <mxGeometry x="360" y="3160" width="40" height="40" as="geometry" />
        </mxCell>
        <mxCell id="m-YmG2BJVFd-W4NlR4my-143" value="&lt;font&gt;G&lt;/font&gt;" style="ellipse;whiteSpace=wrap;html=1;aspect=fixed;fontColor=#FFFFFF;fillColor=#000000;" vertex="1" parent="1">
          <mxGeometry x="280" y="3160" width="40" height="40" as="geometry" />
        </mxCell>
        <mxCell id="m-YmG2BJVFd-W4NlR4my-144" value="&lt;font&gt;K&lt;/font&gt;" style="ellipse;whiteSpace=wrap;html=1;aspect=fixed;fontColor=#FFFFFF;strokeColor=#000000;fillColor=#000000;" vertex="1" parent="1">
          <mxGeometry x="120" y="3160" width="40" height="40" as="geometry" />
        </mxCell>
        <mxCell id="m-YmG2BJVFd-W4NlR4my-145" value="" style="edgeStyle=none;rounded=0;orthogonalLoop=1;jettySize=auto;html=1;fontColor=#000000;" edge="1" parent="1" source="m-YmG2BJVFd-W4NlR4my-146" target="m-YmG2BJVFd-W4NlR4my-136">
          <mxGeometry relative="1" as="geometry" />
        </mxCell>
        <mxCell id="m-YmG2BJVFd-W4NlR4my-146" value="H" style="ellipse;whiteSpace=wrap;html=1;aspect=fixed;fontColor=#000000;" vertex="1" parent="1">
          <mxGeometry x="280" y="3000" width="40" height="40" as="geometry" />
        </mxCell>
        <mxCell id="m-YmG2BJVFd-W4NlR4my-147" value="" style="edgeStyle=none;rounded=0;orthogonalLoop=1;jettySize=auto;html=1;fontColor=#000000;" edge="1" parent="1" source="m-YmG2BJVFd-W4NlR4my-149" target="m-YmG2BJVFd-W4NlR4my-150">
          <mxGeometry relative="1" as="geometry" />
        </mxCell>
        <mxCell id="m-YmG2BJVFd-W4NlR4my-148" value="" style="edgeStyle=none;rounded=0;orthogonalLoop=1;jettySize=auto;html=1;fontColor=#000000;" edge="1" parent="1" source="m-YmG2BJVFd-W4NlR4my-149" target="m-YmG2BJVFd-W4NlR4my-146">
          <mxGeometry relative="1" as="geometry" />
        </mxCell>
        <mxCell id="m-YmG2BJVFd-W4NlR4my-149" value="I" style="ellipse;whiteSpace=wrap;html=1;aspect=fixed;fontColor=#000000;" vertex="1" parent="1">
          <mxGeometry x="200" y="3000" width="40" height="40" as="geometry" />
        </mxCell>
        <mxCell id="m-YmG2BJVFd-W4NlR4my-150" value="J" style="ellipse;whiteSpace=wrap;html=1;aspect=fixed;fontColor=#000000;" vertex="1" parent="1">
          <mxGeometry x="120" y="3000" width="40" height="40" as="geometry" />
        </mxCell>
        <mxCell id="m-YmG2BJVFd-W4NlR4my-151" value="" style="group" vertex="1" connectable="0" parent="1">
          <mxGeometry x="80" y="3260" width="80" height="30" as="geometry" />
        </mxCell>
        <mxCell id="m-YmG2BJVFd-W4NlR4my-152" value="" style="edgeStyle=none;rounded=0;orthogonalLoop=1;jettySize=auto;html=1;fontColor=#FFFFFF;shape=flexArrow;width=4;endSize=3.186666666666667;endWidth=7;" edge="1" parent="m-YmG2BJVFd-W4NlR4my-151">
          <mxGeometry relative="1" as="geometry">
            <mxPoint as="sourcePoint" />
            <mxPoint x="80" as="targetPoint" />
          </mxGeometry>
        </mxCell>
        <mxCell id="m-YmG2BJVFd-W4NlR4my-153" value="&lt;font color=&quot;#000000&quot; style=&quot;font-size: 10px&quot;&gt;新增引用&lt;/font&gt;" style="text;html=1;strokeColor=none;fillColor=none;align=center;verticalAlign=middle;whiteSpace=wrap;rounded=0;fontColor=#FFFFFF;" vertex="1" parent="m-YmG2BJVFd-W4NlR4my-151">
          <mxGeometry x="10" y="10" width="60" height="20" as="geometry" />
        </mxCell>
        <mxCell id="m-YmG2BJVFd-W4NlR4my-154" value="" style="group" vertex="1" connectable="0" parent="1">
          <mxGeometry x="200" y="3260" width="80" height="30" as="geometry" />
        </mxCell>
        <mxCell id="m-YmG2BJVFd-W4NlR4my-155" style="rounded=0;orthogonalLoop=1;jettySize=auto;html=1;fontColor=#000000;dashed=1;" edge="1" parent="m-YmG2BJVFd-W4NlR4my-154">
          <mxGeometry relative="1" as="geometry">
            <mxPoint as="sourcePoint" />
            <mxPoint x="80" as="targetPoint" />
          </mxGeometry>
        </mxCell>
        <mxCell id="m-YmG2BJVFd-W4NlR4my-156" value="&lt;font color=&quot;#000000&quot; style=&quot;font-size: 10px&quot;&gt;删除引用&lt;/font&gt;" style="text;html=1;strokeColor=none;fillColor=none;align=center;verticalAlign=middle;whiteSpace=wrap;rounded=0;fontColor=#FFFFFF;" vertex="1" parent="m-YmG2BJVFd-W4NlR4my-154">
          <mxGeometry x="10" y="10" width="60" height="20" as="geometry" />
        </mxCell>
        <mxCell id="m-YmG2BJVFd-W4NlR4my-157" value="" style="group" vertex="1" connectable="0" parent="1">
          <mxGeometry x="320" y="3260" width="80" height="30" as="geometry" />
        </mxCell>
        <mxCell id="m-YmG2BJVFd-W4NlR4my-158" value="" style="edgeStyle=orthogonalEdgeStyle;orthogonalLoop=1;jettySize=auto;html=1;fontColor=#FFFFFF;fontSize=12;fillColor=#000000;" edge="1" parent="m-YmG2BJVFd-W4NlR4my-157">
          <mxGeometry relative="1" as="geometry">
            <mxPoint as="sourcePoint" />
            <mxPoint x="80" as="targetPoint" />
          </mxGeometry>
        </mxCell>
        <mxCell id="m-YmG2BJVFd-W4NlR4my-159" value="&lt;font color=&quot;#000000&quot; style=&quot;font-size: 10px&quot;&gt;初始引用&lt;/font&gt;" style="text;html=1;strokeColor=none;fillColor=none;align=center;verticalAlign=middle;whiteSpace=wrap;rounded=0;fontColor=#FFFFFF;" vertex="1" parent="m-YmG2BJVFd-W4NlR4my-157">
          <mxGeometry x="10" y="10" width="60" height="20" as="geometry" />
        </mxCell>
        <mxCell id="m-YmG2BJVFd-W4NlR4my-160" value="" style="edgeStyle=orthogonalEdgeStyle;rounded=0;orthogonalLoop=1;jettySize=auto;html=1;" edge="1" parent="1" source="m-YmG2BJVFd-W4NlR4my-161" target="m-YmG2BJVFd-W4NlR4my-163">
          <mxGeometry relative="1" as="geometry" />
        </mxCell>
        <mxCell id="m-YmG2BJVFd-W4NlR4my-161" value="&lt;font color=&quot;#ffffff&quot;&gt;GC Root&lt;/font&gt;" style="whiteSpace=wrap;html=1;aspect=fixed;fillColor=#000000;" vertex="1" parent="1">
          <mxGeometry x="40" y="3440" width="40" height="40" as="geometry" />
        </mxCell>
        <mxCell id="m-YmG2BJVFd-W4NlR4my-162" value="" style="edgeStyle=orthogonalEdgeStyle;orthogonalLoop=1;jettySize=auto;html=1;fontColor=#FFFFFF;fontSize=12;fillColor=#000000;" edge="1" parent="1" source="m-YmG2BJVFd-W4NlR4my-163" target="m-YmG2BJVFd-W4NlR4my-166">
          <mxGeometry relative="1" as="geometry" />
        </mxCell>
        <mxCell id="m-YmG2BJVFd-W4NlR4my-163" value="&lt;font&gt;A&lt;/font&gt;" style="ellipse;whiteSpace=wrap;html=1;aspect=fixed;fontColor=#FFFFFF;fillColor=#000000;" vertex="1" parent="1">
          <mxGeometry x="120" y="3440" width="40" height="40" as="geometry" />
        </mxCell>
        <mxCell id="m-YmG2BJVFd-W4NlR4my-164" value="" style="edgeStyle=orthogonalEdgeStyle;rounded=0;orthogonalLoop=1;jettySize=auto;html=1;fontColor=#000000;" edge="1" parent="1" source="m-YmG2BJVFd-W4NlR4my-166" target="m-YmG2BJVFd-W4NlR4my-168">
          <mxGeometry relative="1" as="geometry" />
        </mxCell>
        <mxCell id="m-YmG2BJVFd-W4NlR4my-165" style="rounded=0;orthogonalLoop=1;jettySize=auto;html=1;entryX=1;entryY=0;entryDx=0;entryDy=0;fontColor=#000000;dashed=1;" edge="1" parent="1" source="m-YmG2BJVFd-W4NlR4my-166" target="m-YmG2BJVFd-W4NlR4my-176">
          <mxGeometry relative="1" as="geometry" />
        </mxCell>
        <mxCell id="m-YmG2BJVFd-W4NlR4my-166" value="&lt;font&gt;B&lt;/font&gt;" style="ellipse;whiteSpace=wrap;html=1;aspect=fixed;fontColor=#FFFFFF;fillColor=#000000;" vertex="1" parent="1">
          <mxGeometry x="200" y="3440" width="40" height="40" as="geometry" />
        </mxCell>
        <mxCell id="m-YmG2BJVFd-W4NlR4my-167" value="" style="edgeStyle=orthogonalEdgeStyle;rounded=0;orthogonalLoop=1;jettySize=auto;html=1;fontColor=#000000;" edge="1" parent="1" source="m-YmG2BJVFd-W4NlR4my-168" target="m-YmG2BJVFd-W4NlR4my-171">
          <mxGeometry relative="1" as="geometry" />
        </mxCell>
        <mxCell id="m-YmG2BJVFd-W4NlR4my-168" value="&lt;font&gt;C&lt;/font&gt;" style="ellipse;whiteSpace=wrap;html=1;aspect=fixed;fontColor=#FFFFFF;strokeColor=#000000;fillColor=#000000;" vertex="1" parent="1">
          <mxGeometry x="280" y="3440" width="40" height="40" as="geometry" />
        </mxCell>
        <mxCell id="m-YmG2BJVFd-W4NlR4my-169" value="" style="edgeStyle=orthogonalEdgeStyle;orthogonalLoop=1;jettySize=auto;html=1;fontColor=#FFFFFF;fontSize=12;fillColor=#000000;" edge="1" parent="1" source="m-YmG2BJVFd-W4NlR4my-171" target="m-YmG2BJVFd-W4NlR4my-172">
          <mxGeometry relative="1" as="geometry" />
        </mxCell>
        <mxCell id="m-YmG2BJVFd-W4NlR4my-170" value="" style="edgeStyle=orthogonalEdgeStyle;orthogonalLoop=1;jettySize=auto;html=1;fontColor=#FFFFFF;fontSize=12;fillColor=#000000;" edge="1" parent="1" source="m-YmG2BJVFd-W4NlR4my-171" target="m-YmG2BJVFd-W4NlR4my-174">
          <mxGeometry relative="1" as="geometry" />
        </mxCell>
        <mxCell id="m-YmG2BJVFd-W4NlR4my-171" value="&lt;font&gt;D&lt;/font&gt;" style="ellipse;whiteSpace=wrap;html=1;aspect=fixed;fontColor=#FFFFFF;strokeColor=#000000;fillColor=#000000;" vertex="1" parent="1">
          <mxGeometry x="360" y="3440" width="40" height="40" as="geometry" />
        </mxCell>
        <mxCell id="m-YmG2BJVFd-W4NlR4my-172" value="&lt;font&gt;E&lt;/font&gt;" style="ellipse;whiteSpace=wrap;html=1;aspect=fixed;fontColor=#FFFFFF;fillColor=#000000;" vertex="1" parent="1">
          <mxGeometry x="360" y="3360" width="40" height="40" as="geometry" />
        </mxCell>
        <mxCell id="m-YmG2BJVFd-W4NlR4my-173" value="" style="edgeStyle=orthogonalEdgeStyle;rounded=0;orthogonalLoop=1;jettySize=auto;html=1;fontColor=#000000;" edge="1" parent="1" source="m-YmG2BJVFd-W4NlR4my-174" target="m-YmG2BJVFd-W4NlR4my-175">
          <mxGeometry relative="1" as="geometry" />
        </mxCell>
        <mxCell id="m-YmG2BJVFd-W4NlR4my-174" value="&lt;font&gt;F&lt;/font&gt;" style="ellipse;whiteSpace=wrap;html=1;aspect=fixed;fontColor=#FFFFFF;fillColor=#000000;" vertex="1" parent="1">
          <mxGeometry x="360" y="3520" width="40" height="40" as="geometry" />
        </mxCell>
        <mxCell id="m-YmG2BJVFd-W4NlR4my-175" value="&lt;font&gt;G&lt;/font&gt;" style="ellipse;whiteSpace=wrap;html=1;aspect=fixed;fontColor=#FFFFFF;fillColor=#000000;" vertex="1" parent="1">
          <mxGeometry x="280" y="3520" width="40" height="40" as="geometry" />
        </mxCell>
        <mxCell id="m-YmG2BJVFd-W4NlR4my-176" value="&lt;font&gt;K&lt;/font&gt;" style="ellipse;whiteSpace=wrap;html=1;aspect=fixed;" vertex="1" parent="1">
          <mxGeometry x="120" y="3520" width="40" height="40" as="geometry" />
        </mxCell>
        <mxCell id="m-YmG2BJVFd-W4NlR4my-177" value="" style="edgeStyle=none;rounded=0;orthogonalLoop=1;jettySize=auto;html=1;fontColor=#000000;" edge="1" parent="1" source="m-YmG2BJVFd-W4NlR4my-178" target="m-YmG2BJVFd-W4NlR4my-168">
          <mxGeometry relative="1" as="geometry" />
        </mxCell>
        <mxCell id="m-YmG2BJVFd-W4NlR4my-178" value="H" style="ellipse;whiteSpace=wrap;html=1;aspect=fixed;fontColor=#000000;" vertex="1" parent="1">
          <mxGeometry x="280" y="3360" width="40" height="40" as="geometry" />
        </mxCell>
        <mxCell id="m-YmG2BJVFd-W4NlR4my-179" value="" style="edgeStyle=none;rounded=0;orthogonalLoop=1;jettySize=auto;html=1;fontColor=#000000;" edge="1" parent="1" source="m-YmG2BJVFd-W4NlR4my-181" target="m-YmG2BJVFd-W4NlR4my-182">
          <mxGeometry relative="1" as="geometry" />
        </mxCell>
        <mxCell id="m-YmG2BJVFd-W4NlR4my-180" value="" style="edgeStyle=none;rounded=0;orthogonalLoop=1;jettySize=auto;html=1;fontColor=#000000;" edge="1" parent="1" source="m-YmG2BJVFd-W4NlR4my-181" target="m-YmG2BJVFd-W4NlR4my-178">
          <mxGeometry relative="1" as="geometry" />
        </mxCell>
        <mxCell id="m-YmG2BJVFd-W4NlR4my-181" value="I" style="ellipse;whiteSpace=wrap;html=1;aspect=fixed;fontColor=#000000;" vertex="1" parent="1">
          <mxGeometry x="200" y="3360" width="40" height="40" as="geometry" />
        </mxCell>
        <mxCell id="m-YmG2BJVFd-W4NlR4my-182" value="J" style="ellipse;whiteSpace=wrap;html=1;aspect=fixed;fontColor=#000000;" vertex="1" parent="1">
          <mxGeometry x="120" y="3360" width="40" height="40" as="geometry" />
        </mxCell>
        <mxCell id="m-YmG2BJVFd-W4NlR4my-183" value="" style="group" vertex="1" connectable="0" parent="1">
          <mxGeometry x="80" y="3620" width="80" height="30" as="geometry" />
        </mxCell>
        <mxCell id="m-YmG2BJVFd-W4NlR4my-184" value="" style="edgeStyle=none;rounded=0;orthogonalLoop=1;jettySize=auto;html=1;fontColor=#FFFFFF;shape=flexArrow;width=4;endSize=3.186666666666667;endWidth=7;" edge="1" parent="m-YmG2BJVFd-W4NlR4my-183">
          <mxGeometry relative="1" as="geometry">
            <mxPoint as="sourcePoint" />
            <mxPoint x="80" as="targetPoint" />
          </mxGeometry>
        </mxCell>
        <mxCell id="m-YmG2BJVFd-W4NlR4my-185" value="&lt;font color=&quot;#000000&quot; style=&quot;font-size: 10px&quot;&gt;新增引用&lt;/font&gt;" style="text;html=1;strokeColor=none;fillColor=none;align=center;verticalAlign=middle;whiteSpace=wrap;rounded=0;fontColor=#FFFFFF;" vertex="1" parent="m-YmG2BJVFd-W4NlR4my-183">
          <mxGeometry x="10" y="10" width="60" height="20" as="geometry" />
        </mxCell>
        <mxCell id="m-YmG2BJVFd-W4NlR4my-186" value="" style="group" vertex="1" connectable="0" parent="1">
          <mxGeometry x="200" y="3620" width="80" height="30" as="geometry" />
        </mxCell>
        <mxCell id="m-YmG2BJVFd-W4NlR4my-187" style="rounded=0;orthogonalLoop=1;jettySize=auto;html=1;fontColor=#000000;dashed=1;" edge="1" parent="m-YmG2BJVFd-W4NlR4my-186">
          <mxGeometry relative="1" as="geometry">
            <mxPoint as="sourcePoint" />
            <mxPoint x="80" as="targetPoint" />
          </mxGeometry>
        </mxCell>
        <mxCell id="m-YmG2BJVFd-W4NlR4my-188" value="&lt;font color=&quot;#000000&quot; style=&quot;font-size: 10px&quot;&gt;删除引用&lt;/font&gt;" style="text;html=1;strokeColor=none;fillColor=none;align=center;verticalAlign=middle;whiteSpace=wrap;rounded=0;fontColor=#FFFFFF;" vertex="1" parent="m-YmG2BJVFd-W4NlR4my-186">
          <mxGeometry x="10" y="10" width="60" height="20" as="geometry" />
        </mxCell>
        <mxCell id="m-YmG2BJVFd-W4NlR4my-189" value="" style="group" vertex="1" connectable="0" parent="1">
          <mxGeometry x="320" y="3620" width="80" height="30" as="geometry" />
        </mxCell>
        <mxCell id="m-YmG2BJVFd-W4NlR4my-190" value="" style="edgeStyle=orthogonalEdgeStyle;orthogonalLoop=1;jettySize=auto;html=1;fontColor=#FFFFFF;fontSize=12;fillColor=#000000;" edge="1" parent="m-YmG2BJVFd-W4NlR4my-189">
          <mxGeometry relative="1" as="geometry">
            <mxPoint as="sourcePoint" />
            <mxPoint x="80" as="targetPoint" />
          </mxGeometry>
        </mxCell>
        <mxCell id="m-YmG2BJVFd-W4NlR4my-191" value="&lt;font color=&quot;#000000&quot; style=&quot;font-size: 10px&quot;&gt;初始引用&lt;/font&gt;" style="text;html=1;strokeColor=none;fillColor=none;align=center;verticalAlign=middle;whiteSpace=wrap;rounded=0;fontColor=#FFFFFF;" vertex="1" parent="m-YmG2BJVFd-W4NlR4my-189">
          <mxGeometry x="10" y="10" width="60" height="20" as="geometry" />
        </mxCell>
      </root>
    </mxGraphModel>
  </diagram>
</mxfile>
